<?xml version="1.0" standalone="no"?>
<!DOCTYPE svg PUBLIC "-//W3C//DTD SVG 20010904//EN"
 "http://www.w3.org/TR/2001/REC-SVG-20010904/DTD/svg10.dtd">
<svg version="1.0" xmlns="http://www.w3.org/2000/svg"
 width="2400.000000pt" height="3085.000000pt" viewBox="0 0 2400.000000 3085.000000"
 preserveAspectRatio="xMidYMid meet">
<metadata>
Created by potrace 1.16, written by Peter Selinger 2001-2019
</metadata>
<g transform="translate(0.000000,3085.000000) scale(0.100000,-0.100000)"
fill="#000000" stroke="none">
<path d="M2860 30835 c-203 -44 -372 -160 -438 -303 -38 -82 -43 -212 -12
-314 58 -191 197 -385 343 -481 207 -135 282 -270 232 -418 -33 -95 -157 -229
-338 -362 -40 -30 -142 -106 -228 -169 -170 -126 -254 -203 -293 -270 -54 -94
-41 -163 49 -246 47 -44 57 -60 80 -134 36 -112 45 -264 21 -372 -67 -298
-328 -506 -697 -555 -47 -6 -113 -18 -145 -27 -135 -34 -287 -129 -362 -226
-199 -258 -145 -570 103 -603 103 -13 284 48 426 145 70 48 325 128 463 146
l51 7 -20 -23 c-26 -30 -271 -148 -414 -200 -62 -22 -174 -57 -249 -76 -477
-123 -879 -384 -1142 -738 -144 -194 -224 -372 -271 -601 -18 -86 -20 -125
-16 -275 4 -145 9 -191 30 -272 32 -122 84 -251 142 -349 101 -174 271 -629
409 -1089 113 -381 186 -665 376 -1475 228 -973 354 -1418 545 -1930 436
-1168 989 -2315 1618 -3355 418 -689 846 -1302 1387 -1986 74 -94 176 -227
226 -295 242 -328 551 -658 953 -1018 422 -378 1370 -1123 1676 -1317 834
-529 1449 -858 2100 -1121 188 -76 995 -347 1271 -427 814 -235 1699 -389
2874 -500 377 -36 534 -49 1360 -112 687 -52 756 -56 1050 -55 996 4 2088 93
3014 246 185 31 229 35 393 35 316 0 504 39 992 207 508 174 643 211 856 234
198 21 410 -10 599 -86 l110 -44 40 33 c67 55 182 126 270 166 184 85 367 129
825 200 387 60 584 114 756 208 l70 38 24 95 c20 78 24 120 25 249 1 171 -8
207 -74 291 -42 52 -152 106 -255 124 -104 19 -351 19 -625 0 -256 -17 -475
-19 -607 -4 -192 21 -356 87 -462 184 l-60 56 -38 -42 c-167 -186 -358 -279
-571 -279 -118 0 -229 23 -491 100 -296 88 -378 103 -551 103 -112 1 -162 -4
-220 -19 -60 -15 -109 -19 -250 -19 -190 0 -280 14 -333 49 -102 69 -74 134
193 446 85 100 181 218 214 263 105 148 166 293 166 397 0 42 -3 47 -43 71
-202 126 -408 132 -647 18 -204 -97 -406 -262 -706 -576 -303 -316 -475 -492
-515 -523 l-36 -29 -319 64 c-1147 232 -2295 615 -3056 1021 -1174 626 -2031
1241 -2664 1914 -129 137 -568 649 -947 1105 -855 1026 -1274 1711 -1562 2554
-295 861 -362 1089 -480 1631 -206 950 -298 1748 -430 3720 -43 649 -81 1157
-108 1475 -34 380 67 667 267 765 168 82 366 60 806 -92 421 -144 598 -200
720 -224 262 -54 489 -26 618 74 l24 18 -31 80 c-59 153 -181 314 -335 442
-140 116 -281 204 -511 317 -230 113 -397 181 -820 335 -154 56 -346 129 -426
161 -99 40 -171 62 -224 70 -95 13 -227 50 -316 89 -106 47 -198 103 -443 267
-341 229 -532 316 -763 345 l-93 12 0 67 c0 178 -96 320 -274 407 -125 61
-240 88 -638 152 -272 43 -453 83 -559 123 -142 53 -275 134 -351 214 l-37 38
31 95 c24 74 32 119 36 202 4 102 3 111 -23 163 -46 94 -125 136 -292 156 -80
10 -158 9 -424 -6 -265 -15 -344 -16 -427 -7 -195 23 -301 78 -357 187 -27 52
-30 70 -33 167 -4 105 -3 110 32 191 81 188 103 402 57 537 -63 181 -216 309
-437 366 -80 20 -120 24 -233 23 -75 0 -165 -7 -201 -14z m395 -139 c60 -30
85 -49 120 -94 54 -69 102 -163 111 -219 6 -38 3 -45 -23 -72 -21 -21 -44 -31
-78 -37 -50 -7 -221 -1 -402 15 -192 17 -275 -8 -281 -85 -5 -54 11 -100 58
-172 22 -34 35 -62 30 -62 -18 0 -98 86 -119 128 -11 21 -25 68 -31 103 -21
123 31 280 131 393 54 60 94 87 178 123 47 20 69 23 143 20 76 -3 95 -8 163
-41z m1119 -1592 c65 -25 79 -48 46 -74 -58 -46 -256 -87 -393 -82 -87 3 -87
4 -87 30 0 62 63 118 157 142 59 15 221 5 277 -16z m118 -703 c231 -70 359
-116 455 -164 68 -35 166 -109 196 -149 28 -36 58 -90 53 -95 -2 -2 -34 11
-72 29 -51 24 -83 33 -124 33 -55 0 -55 0 -58 -32 -2 -18 11 -80 27 -139 39
-134 40 -201 7 -241 -47 -55 -170 -70 -271 -32 -216 81 -478 376 -554 623 -25
80 -28 191 -7 241 l14 34 50 -19 c27 -10 155 -51 284 -89z m-465 -437 c89 -68
174 -146 189 -175 26 -51 -5 -54 -281 -29 -392 37 -587 19 -743 -66 -70 -37
-168 -55 -227 -40 -38 10 -23 23 79 72 199 94 786 270 913 273 12 1 43 -15 70
-35z m1918 -324 c14 -13 25 -33 25 -44 -1 -32 -37 -105 -81 -163 -21 -29 -39
-56 -39 -61 0 -5 32 -49 71 -98 94 -116 178 -244 185 -283 6 -26 3 -31 -13
-31 -54 0 -345 255 -419 367 -32 47 -84 94 -84 75 0 -4 22 -33 49 -63 72 -81
95 -152 96 -299 0 -92 -4 -129 -22 -186 -44 -140 -127 -226 -220 -227 -114 -2
-257 114 -370 299 -140 229 -260 323 -335 265 -64 -50 -60 -190 8 -356 5 -13
-9 -5 -42 24 -62 55 -225 134 -329 160 -378 95 -931 18 -1659 -229 -90 -30
-122 -35 -163 -24 -57 15 -3 54 147 108 123 45 355 109 812 227 238 61 485
126 548 144 63 18 144 36 180 39 91 10 311 68 685 181 548 165 729 207 868
201 65 -2 81 -6 102 -26z m2768 -750 c137 -9 142 -12 189 -108 74 -150 39
-357 -94 -551 -52 -74 -191 -213 -276 -274 -163 -117 -359 -201 -527 -227 -44
-7 -120 -26 -170 -42 -593 -198 -998 -280 -1985 -406 -223 -28 -316 -36 -380
-32 -202 13 -421 -18 -640 -90 -177 -58 -304 -116 -705 -320 -521 -265 -716
-345 -985 -403 -158 -34 -193 -39 -186 -24 43 98 56 139 56 179 0 40 -4 50
-25 64 -33 22 -127 16 -315 -20 -176 -32 -287 -46 -380 -46 l-76 0 13 -72 c27
-153 -16 -253 -123 -288 -58 -20 -175 -7 -273 29 -162 59 -300 150 -418 275
-161 169 -179 330 -48 430 46 36 145 80 215 97 30 7 59 16 64 20 11 9 -102 45
-191 60 -92 16 -245 7 -313 -20 -168 -64 -279 -235 -325 -496 -28 -160 -23
-471 12 -663 5 -32 4 -33 -23 -30 -56 6 -248 324 -304 503 -16 49 -24 105 -27
186 -5 102 -2 126 18 194 99 334 527 577 1224 695 93 16 171 28 172 26 2 -1
-7 -40 -18 -86 -78 -307 138 -506 672 -620 l106 -23 79 27 c93 31 137 56 160
91 34 52 -4 91 -199 206 -58 33 -117 89 -117 110 0 23 63 68 126 91 112 39
105 51 -96 154 -219 112 -259 159 -181 211 51 35 147 61 341 94 553 94 946
196 2000 520 692 213 1169 329 1755 428 870 146 1571 194 2198 151z m1665
-736 c93 -31 173 -78 229 -135 75 -75 95 -143 69 -233 -15 -52 -19 -56 -46
-56 -31 0 -66 37 -89 97 -17 43 -40 61 -158 127 -261 145 -323 246 -140 231
32 -3 92 -16 135 -31z m-2223 -829 c124 -77 192 -264 215 -591 23 -320 -36
-821 -134 -1146 -20 -65 -36 -120 -36 -123 0 -3 13 1 30 10 37 19 53 19 90 0
37 -19 75 -91 100 -189 33 -131 43 -288 37 -610 -5 -308 -24 -526 -66 -757
-10 -57 -17 -106 -15 -108 2 -3 17 8 33 23 127 122 194 -244 115 -632 -13 -65
-62 -225 -90 -296 -6 -17 -3 -16 25 5 27 19 45 24 97 24 58 0 66 -3 95 -32 61
-60 50 -172 -34 -340 l-40 -83 -33 49 c-52 77 -103 75 -147 -8 -52 -96 -95
-305 -104 -510 -6 -126 -5 -133 13 -129 18 3 31 37 64 165 23 92 213 334 273
349 61 14 80 -32 127 -306 17 -96 39 -202 49 -235 11 -33 29 -116 41 -185 40
-235 84 -403 245 -930 51 -168 107 -357 124 -420 32 -120 81 -347 81 -375 0
-9 25 -45 56 -78 31 -34 65 -81 76 -103 32 -63 21 -86 -65 -135 -39 -23 -90
-57 -113 -75 -71 -57 -124 -186 -124 -301 l0 -46 21 19 c16 14 36 19 78 19 78
0 171 -48 268 -139 180 -168 286 -374 313 -611 7 -55 13 -101 14 -103 2 -1 6
53 10 120 9 148 22 262 37 306 19 57 40 42 141 -95 115 -158 208 -257 298
-319 l69 -47 197 -326 c224 -372 443 -706 568 -866 112 -142 298 -347 393
-432 114 -102 273 -307 273 -352 0 -5 -17 -18 -37 -28 -21 -10 -39 -26 -41
-36 -9 -46 136 -282 270 -443 148 -176 386 -385 603 -531 415 -277 1012 -529
1601 -672 l91 -22 95 -117 c266 -325 570 -562 874 -682 262 -104 582 -124 859
-54 20 5 20 5 0 -13 -141 -127 -50 -231 299 -342 71 -23 284 -79 472 -126 445
-110 564 -153 564 -205 0 -24 -34 -44 -133 -81 -45 -17 -120 -45 -167 -62 -80
-30 -93 -31 -220 -31 -157 0 -209 11 -495 104 -239 78 -367 108 -485 116 -111
8 -176 31 -590 214 -714 315 -1021 402 -1374 387 -210 -9 -324 -45 -527 -169
-195 -118 -309 -170 -309 -140 0 15 57 99 112 163 152 179 178 214 178 230 0
26 -19 18 -140 -64 -65 -43 -124 -93 -155 -129 -74 -87 -199 -194 -268 -228
-134 -67 -214 -25 -344 178 -120 189 -167 245 -243 290 -41 24 -55 27 -145 27
-94 0 -104 -2 -177 -37 l-76 -36 -27 28 c-14 15 -54 41 -88 58 -34 16 -93 45
-131 63 -81 39 -136 87 -136 118 0 30 65 98 129 134 45 26 51 32 35 38 -10 4
-41 8 -69 9 -71 2 -139 22 -143 41 -2 9 25 51 58 93 96 122 172 247 158 261
-3 3 -139 14 -304 25 -508 34 -754 72 -995 150 -94 31 -244 103 -298 144 -43
32 -143 171 -182 252 -87 184 1 209 406 116 121 -28 238 -54 259 -58 l39 -7
-71 -18 c-130 -33 -192 -78 -192 -141 0 -29 7 -45 35 -72 176 -176 727 -255
1019 -145 31 11 56 24 56 27 0 4 -17 16 -37 27 -55 29 -165 137 -358 350 -374
414 -609 623 -880 782 -440 259 -821 444 -1765 856 -546 238 -666 295 -780
365 -131 80 -232 154 -266 195 -26 31 -26 31 -6 40 67 30 520 -140 757 -284
39 -23 96 -62 127 -86 64 -48 163 -91 287 -123 119 -31 251 -26 308 12 58 38
78 86 78 183 -2 207 -170 491 -402 675 -120 97 -164 117 -268 123 -155 10
-296 67 -442 180 -32 25 -112 95 -178 156 -165 153 -244 217 -317 257 l-63 34
115 0 c330 2 542 110 580 296 9 45 9 69 -4 130 -32 158 -136 314 -367 549 -80
83 -186 194 -233 247 -92 103 -133 138 -161 138 -27 0 -13 -46 67 -220 185
-405 233 -539 212 -597 -9 -25 -15 -28 -51 -27 -23 0 -49 6 -57 14 -29 23 -94
168 -136 302 -89 282 -191 410 -399 498 -74 32 -241 83 -248 76 -2 -2 -9 -51
-14 -108 -16 -172 -54 -290 -95 -296 -32 -4 -61 42 -104 167 -24 66 -44 107
-53 109 -9 2 -62 -11 -118 -27 -56 -17 -124 -31 -151 -31 -118 0 -206 96 -281
306 -24 66 -25 78 -20 211 5 125 4 148 -16 214 -49 163 -147 281 -426 514
-188 156 -280 249 -325 328 -40 71 -39 83 8 53 191 -120 427 -191 559 -166
120 22 169 83 161 205 -6 98 -55 195 -162 323 -44 53 -107 137 -139 185 -150
226 -245 258 -359 124 -57 -67 -137 -146 -219 -217 -161 -141 -226 -153 -272
-52 -30 67 -28 262 7 528 14 110 26 231 26 268 0 59 -2 67 -17 64 -10 -2 -31
-24 -48 -50 -26 -41 -34 -47 -65 -47 -45 -1 -98 -28 -124 -63 -31 -44 -32
-159 -2 -397 14 -112 26 -231 26 -263 0 -52 -2 -59 -17 -54 -102 31 -269 50
-321 36 -120 -32 -44 -135 383 -520 224 -203 485 -459 415 -407 -81 59 -157
79 -217 56 -15 -5 -71 -55 -124 -109 -78 -80 -103 -100 -134 -106 -46 -8 -104
17 -164 71 -43 39 -58 76 -121 300 -38 136 -83 261 -123 340 -66 134 -175 255
-290 324 -60 35 -208 91 -244 91 -36 0 -36 18 1 30 54 17 142 86 160 124 63
133 -45 284 -349 491 -55 38 -128 88 -162 112 l-62 44 41 37 c22 20 105 114
183 207 234 281 289 317 400 266 80 -36 210 -181 319 -353 l37 -58 -59 0 c-83
0 -153 -36 -190 -98 -25 -43 -27 -56 -27 -147 1 -86 5 -113 32 -187 89 -254
268 -425 365 -348 24 18 25 25 32 172 4 84 11 230 16 323 9 182 1 330 -25 430
-64 245 -257 417 -598 530 l-109 36 -35 -35 c-105 -104 -262 -20 -368 197 -81
167 -85 304 -10 353 32 21 103 21 163 0 l42 -15 0 63 c0 228 95 353 303 401
34 8 144 21 245 29 209 17 262 33 281 88 6 17 11 38 11 47 0 9 19 27 41 41 61
38 84 82 83 160 -1 83 -30 154 -157 377 -150 262 -183 363 -153 466 17 58 73
124 128 153 27 14 35 13 106 -12 137 -47 333 -36 538 31 172 56 310 133 413
229 139 132 119 237 -54 292 -58 18 -23 17 200 -6 303 -32 400 -26 489 30 57
36 100 110 122 208 13 59 19 72 33 68 9 -3 126 -33 261 -66 492 -123 620 -142
620 -91 0 35 -120 124 -309 229 l-83 47 58 26 c251 113 767 228 1164 259 133
11 136 11 190 49 124 86 217 122 311 118 53 -2 76 -8 114 -32z m-6747 -1167
c21 -21 14 -37 -38 -89 -55 -55 -66 -56 -143 -17 -47 23 -56 44 -30 69 41 42
182 66 211 37z m1877 -507 c99 -5 197 -16 235 -26 204 -53 247 -171 109 -300
-89 -83 -261 -143 -376 -132 -64 7 -193 67 -222 103 -26 33 -26 49 -3 72 17
17 26 18 143 5 142 -16 250 -14 256 4 7 20 -40 43 -262 129 -377 146 -403 170
-175 159 69 -3 202 -9 295 -14z m-852 -295 c119 -43 99 -123 -60 -236 -23 -17
-48 -30 -55 -30 -8 0 -48 23 -90 50 -146 96 -153 168 -22 215 50 18 178 18
227 1z m425 -302 c27 -19 28 -37 1 -80 -23 -38 -38 -38 -136 -2 -62 23 -81 41
-63 63 28 34 159 47 198 19z m-304 -166 c22 -30 21 -114 0 -122 -30 -11 -100
-6 -122 10 -32 22 -27 51 17 95 45 45 82 51 105 17z m-214 -545 c87 -21 187
-68 206 -99 15 -22 15 -26 0 -49 -9 -14 -34 -34 -55 -45 -39 -19 -40 -19 -95
0 -80 27 -227 105 -272 144 -41 35 -42 61 -2 69 35 8 145 -3 218 -20z m-844
-362 c37 -36 69 -105 99 -207 37 -129 36 -131 -52 -90 -70 33 -138 98 -159
152 -23 61 -15 131 20 160 30 26 55 22 92 -15z m859 -15 c61 -36 103 -102 124
-198 l9 -40 -54 7 c-72 9 -186 41 -233 64 -110 57 -118 135 -18 182 52 24 113
19 172 -15z m-161 -340 c65 -20 121 -61 141 -103 9 -19 14 -37 11 -40 -18 -18
-276 109 -276 135 0 26 53 29 124 8z m-477 -428 c74 -80 254 -425 357 -685 83
-211 126 -368 133 -486 l6 -99 -43 22 c-24 12 -64 44 -91 72 -79 82 -124 190
-214 513 -20 72 -52 167 -72 213 -44 103 -109 329 -119 411 -7 69 5 80 43 39z
m-210 -250 c152 -157 393 -588 444 -793 8 -34 34 -79 79 -140 168 -225 233
-366 381 -820 94 -290 165 -447 300 -662 32 -51 55 -93 52 -93 -13 0 -134 104
-199 172 -202 209 -346 470 -592 1068 -171 416 -240 565 -328 717 -134 229
-259 603 -201 603 7 0 36 -24 64 -52z m2036 -1197 c27 -21 5 -46 -78 -87 l-74
-37 -72 23 c-76 25 -127 59 -115 78 4 7 28 18 54 27 61 19 261 17 285 -4z
m1093 -56 c9 -13 18 -51 21 -85 6 -68 1 -72 -62 -46 -66 28 -79 82 -32 134 27
29 53 28 73 -3z m584 -630 c82 -42 118 -139 175 -460 46 -265 84 -390 145
-484 46 -69 75 -97 134 -125 49 -24 98 -82 204 -244 69 -105 111 -189 119
-237 7 -45 -28 -69 -84 -59 -76 13 -243 87 -498 219 -399 208 -651 331 -745
363 -167 58 -373 158 -378 184 -2 12 6 21 22 28 30 11 33 22 9 41 -46 39 -146
198 -179 286 -88 235 79 255 486 61 236 -113 366 -157 465 -161 108 -3 155 35
155 126 0 80 -63 248 -144 387 -20 34 -36 63 -36 66 0 10 46 23 83 23 21 1 51
-6 67 -14z m-3035 -207 c152 -169 407 -632 500 -908 106 -311 262 -566 579
-945 324 -387 398 -485 469 -622 25 -49 57 -126 70 -171 l23 -82 68 -45 c204
-134 338 -284 442 -497 24 -51 83 -212 130 -358 48 -146 104 -299 125 -341 46
-89 111 -167 184 -224 62 -48 188 -108 224 -107 14 1 42 2 62 4 79 5 140 -65
274 -312 98 -180 169 -286 240 -356 107 -105 241 -154 372 -136 l60 8 -33 -33
c-45 -44 -52 -88 -25 -149 17 -37 69 -95 220 -244 109 -107 213 -216 230 -242
30 -45 35 -48 74 -48 166 0 448 -159 652 -365 170 -173 211 -296 107 -322 -59
-14 -259 34 -474 113 -37 14 -116 57 -175 97 -112 73 -223 179 -548 518 -110
114 -166 163 -265 232 -401 278 -797 703 -1157 1242 -176 264 -284 443 -484
803 -65 117 -162 277 -216 355 -53 78 -216 315 -362 527 -715 1039 -977 1490
-1258 2165 -142 341 -193 495 -165 495 5 0 31 -24 57 -52z m2008 -1539 c85
-43 154 -121 192 -212 l15 -38 -82 52 c-159 98 -248 179 -234 215 8 20 52 13
109 -17z m2906 -33 c41 -28 73 -83 86 -143 7 -36 8 -36 -105 -1 -124 39 -200
88 -200 128 0 56 145 67 219 16z m-1267 -121 c110 -22 265 -65 558 -155 69
-21 151 -43 183 -50 32 -8 57 -19 57 -26 0 -21 -66 -71 -123 -92 -235 -88
-277 -114 -277 -168 0 -41 86 -119 192 -174 l87 -45 -164 -5 c-110 -3 -168 -9
-176 -17 -33 -33 47 -103 298 -261 139 -87 142 -90 123 -107 -22 -20 -35 -73
-25 -105 9 -30 59 -85 130 -143 98 -80 186 -169 206 -209 26 -52 24 -113 -6
-167 -14 -23 -25 -44 -25 -46 0 -1 42 -36 93 -78 120 -98 223 -205 210 -218
-33 -33 -389 143 -710 353 -102 66 -217 129 -350 192 -411 193 -555 279 -604
360 -20 33 -25 76 -9 76 6 0 77 -33 158 -74 237 -118 322 -147 322 -109 0 32
-191 197 -547 472 -46 35 -83 65 -83 66 0 1 19 -1 43 -6 69 -13 153 -11 166 5
21 25 -1 52 -175 221 -90 88 -164 167 -164 176 0 24 26 27 105 13 39 -7 91
-16 118 -20 l47 -7 0 32 c0 17 -11 59 -25 92 -31 72 -26 99 15 99 38 0 155
-43 252 -91 43 -22 83 -39 89 -39 6 0 -32 41 -85 91 -123 117 -149 161 -103
179 36 14 75 11 199 -15z m-1034 -300 c56 -28 98 -60 161 -122 46 -45 81 -86
78 -90 -4 -3 -76 29 -162 71 -152 76 -263 155 -249 178 12 19 94 1 172 -37z
m-619 -330 c84 -61 191 -187 191 -223 0 -8 -23 5 -52 29 -80 66 -238 223 -238
236 0 18 44 0 99 -42z m2246 -1495 c97 -20 175 -47 175 -61 0 -12 -68 -29
-117 -29 -40 0 -196 50 -262 85 -78 40 20 42 204 5z m1190 -95 c184 -69 425
-196 425 -225 0 -23 -119 1 -353 72 -137 41 -138 41 -207 107 -39 36 -70 72
-70 80 0 23 94 7 205 -34z m-649 -99 c45 -14 94 -36 109 -48 25 -19 26 -22 9
-31 -54 -30 -83 -27 -188 22 -55 26 -112 58 -126 70 l-25 22 70 -5 c39 -2 107
-16 151 -30z m-261 -201 c210 -31 489 -114 675 -201 52 -24 139 -55 193 -69
196 -50 338 -121 345 -172 10 -67 -96 -120 -303 -153 -89 -14 -337 -14 -435 0
-152 21 -311 74 -388 128 -15 11 -71 29 -125 40 -91 20 -103 25 -155 71 -281
243 -282 369 -2 371 52 0 140 -7 195 -15z m1381 -140 c120 -40 389 -177 479
-245 44 -33 89 -60 100 -60 42 0 227 -51 278 -76 149 -75 124 -131 -58 -127
-100 1 -281 36 -335 63 -19 9 -60 25 -90 35 -92 29 -166 74 -197 117 -15 22
-61 63 -103 91 -151 101 -260 196 -260 225 0 21 84 11 186 -23z m761 10 c135
-22 252 -67 312 -121 48 -43 51 -44 187 -69 232 -43 390 -93 367 -116 -32 -32
-311 -26 -496 11 -172 35 -332 95 -412 155 -16 12 -73 34 -125 49 -98 28 -150
52 -157 73 -11 32 172 43 324 18z m3498 -436 c9 -17 17 -49 18 -72 2 -41 1
-41 -38 -48 -55 -10 -94 0 -111 27 -14 20 -14 26 2 59 33 71 101 89 129 34z
m-3456 -288 c140 -47 317 -129 345 -160 18 -20 18 -21 -10 -31 -76 -29 -318
29 -429 103 -92 61 -145 107 -145 124 0 26 99 11 239 -36z m-100 -527 c239
-82 571 -266 571 -317 0 -17 -139 1 -250 31 -203 56 -346 123 -423 199 -66 65
-81 88 -73 109 9 23 62 16 175 -22z m634 5 c48 -13 77 -45 77 -85 l0 -32 -65
14 c-83 17 -134 39 -141 59 -10 26 12 40 86 54 3 0 22 -4 43 -10z m-1025 -145
c47 -19 51 -40 14 -77 l-32 -31 -84 27 c-140 46 -163 84 -58 97 58 7 117 2
160 -16z m-92 -586 c9 -15 -88 -106 -122 -114 -34 -9 -149 5 -170 20 -23 17
-14 29 42 55 89 42 234 65 250 39z m1089 -22 c54 -16 54 -42 -3 -72 l-42 -22
-73 20 c-39 11 -92 29 -116 40 -40 20 -42 22 -26 35 24 17 203 17 260 -1z
m561 -137 c52 -24 76 -68 63 -112 -5 -17 -12 -34 -17 -39 -18 -18 -273 72
-303 108 -51 61 149 95 257 43z m1476 -137 c9 -9 7 -17 -8 -33 -21 -24 -169
-99 -195 -99 -28 0 -142 38 -167 56 -41 28 -3 54 118 80 76 15 235 13 252 -4z
m7409 -62 c30 -17 23 -47 -23 -96 -42 -44 -44 -45 -78 -33 -87 30 -102 67 -42
102 55 32 112 43 143 27z m-7737 -285 c232 -22 233 -37 1 -31 -139 3 -213 10
-275 24 l-85 20 101 1 c55 1 172 -6 258 -14z m-2731 -175 c121 -40 177 -64
272 -121 433 -257 941 -492 1725 -799 715 -280 1048 -412 1255 -500 l210 -89
240 -35 c132 -19 371 -56 531 -81 686 -107 1058 -140 1464 -132 274 6 349 13
558 48 l123 20 82 -35 c289 -122 542 -145 1147 -101 536 38 765 24 1023 -64
136 -46 137 -45 -45 -74 -768 -126 -1551 -137 -2583 -36 -320 31 -857 100
-1426 184 -283 42 -698 102 -924 135 -434 63 -627 98 -858 156 -544 136 -998
301 -1906 690 -478 206 -535 232 -672 311 -46 27 -160 93 -254 147 -282 163
-472 296 -422 296 50 0 388 -162 543 -261 164 -105 685 -345 1014 -467 170
-63 242 -84 277 -80 l28 3 -28 27 c-39 36 -183 122 -232 138 -226 71 -1037
495 -1280 668 -61 43 -115 93 -115 105 0 18 100 -4 253 -53z m903 -33 c33 -29
29 -57 -18 -110 l-33 -37 -40 18 c-54 25 -105 70 -105 91 0 19 24 44 50 54 8
3 38 6 67 6 41 1 58 -4 79 -22z m5286 -227 c43 -33 59 -92 70 -255 l11 -149
-89 -86 c-154 -147 -214 -162 -249 -63 -9 26 -24 68 -34 93 -26 70 -63 68
-160 -10 -70 -56 -130 -90 -159 -90 -35 0 -55 35 -49 85 6 42 41 121 69 156
24 29 276 226 338 264 123 75 205 93 252 55z m-615 -136 c-62 -57 -92 -77
-140 -93 -83 -28 -96 -27 -66 5 48 51 265 182 278 168 3 -3 -29 -39 -72 -80z
m5104 -55 c103 -10 328 -39 501 -64 375 -53 555 -75 625 -75 28 0 55 -5 59
-11 9 -16 -53 -77 -107 -104 -161 -83 -370 -89 -1009 -29 -274 25 -450 31
-755 24 -103 -3 -190 1 -243 9 -77 13 -82 15 -76 35 25 80 74 133 159 172 163
75 417 88 846 43z m-3818 -14 c25 -24 8 -56 -67 -130 -71 -70 -307 -245 -330
-245 -18 0 -63 50 -76 85 -27 70 54 170 192 238 124 61 249 84 281 52z m5535
-140 c4 -87 -32 -122 -99 -95 -44 18 -39 53 16 107 58 59 79 55 83 -12z m2690
18 c75 -18 22 -43 -158 -73 -174 -30 -353 -49 -580 -62 -187 -11 -211 -10
-275 6 -85 21 -155 51 -155 66 0 26 110 44 410 65 204 14 698 13 758 -2z
m-13110 -103 c35 -21 41 -49 20 -95 -13 -29 -7 -29 -86 -10 -65 15 -136 47
-147 65 -30 48 146 81 213 40z m5368 -44 c19 -14 19 -15 0 -50 -37 -69 -216
-196 -277 -196 -5 0 -9 14 -9 30 0 84 108 195 215 221 45 11 49 10 71 -5z
m-516 -80 c0 -26 -42 -90 -117 -177 -51 -59 -62 -68 -93 -68 -50 -1 -108 17
-119 37 -27 48 119 178 253 223 57 20 76 16 76 -15z m1090 -95 c0 -5 -36 -43
-80 -83 -78 -73 -107 -89 -212 -112 -83 -19 34 81 185 159 90 46 107 52 107
36z m-5259 -40 c79 -17 290 -64 469 -106 433 -101 599 -135 695 -142 62 -5
105 -16 189 -50 128 -51 238 -107 262 -134 16 -18 15 -19 -12 -30 -62 -24
-386 11 -694 76 -324 68 -552 138 -745 227 -242 113 -330 156 -350 171 -19 16
-19 16 11 17 17 0 96 -13 175 -29z m4853 -20 c15 -24 -153 -211 -190 -211 -23
0 -52 18 -64 40 -14 26 9 70 53 104 71 54 185 93 201 67z m746 -8 c-1 -38
-129 -153 -284 -255 l-91 -60 -17 22 c-37 46 -14 105 68 170 121 96 325 174
324 123z m964 -889 c25 -10 19 -29 -21 -68 -48 -47 -70 -52 -133 -31 -82 27
-78 58 10 89 46 16 116 21 144 10z"/>
<path d="M6921 26744 c-60 -53 -91 -171 -91 -345 l0 -86 88 -26 c122 -37 169
-46 232 -47 76 0 139 32 164 84 70 143 -147 455 -316 456 -29 0 -47 -8 -77
-36z"/>
<path d="M7768 26654 c-97 -30 -201 -131 -264 -259 l-36 -74 22 -35 c46 -75
100 -22 100 99 0 49 2 55 23 59 246 49 370 112 353 179 -11 46 -103 61 -198
31z"/>
<path d="M5380 26254 c-342 -25 -653 -126 -774 -253 l-29 -30 29 -12 c53 -20
143 -5 265 46 174 72 227 87 304 88 75 2 139 -17 207 -60 l38 -23 112 24 c223
48 339 97 346 143 4 27 -29 45 -108 62 -58 12 -298 21 -390 15z"/>
<path d="M3916 25760 c-35 -11 -64 -36 -82 -72 -26 -51 -18 -69 67 -145 l82
-73 116 0 c128 0 184 11 219 43 45 42 14 107 -81 170 -99 67 -245 102 -321 77z"/>
<path d="M3493 25710 c-13 -5 -46 -25 -74 -44 l-51 -34 23 -15 c60 -39 129
-28 174 25 36 43 30 72 -15 75 -19 1 -45 -2 -57 -7z"/>
<path d="M3535 25471 c-46 -12 -68 -26 -110 -72 -39 -43 -80 -123 -91 -176
l-6 -31 44 5 c90 10 221 -38 376 -138 170 -111 288 -152 325 -114 57 56 -38
246 -194 388 -117 107 -253 162 -344 138z"/>
<path d="M7857 24381 c-153 -170 -272 -726 -211 -992 26 -114 106 -209 176
-209 100 0 205 151 296 425 72 215 122 513 93 555 -31 45 -99 -79 -136 -250
-46 -215 -105 -370 -140 -370 -23 0 -28 42 -22 159 6 106 33 235 81 387 24 76
25 87 16 160 -6 44 -21 99 -33 124 -18 37 -27 46 -53 48 -25 2 -37 -4 -67 -37z"/>
<path d="M4856 23463 c100 -229 154 -402 154 -492 -1 -25 -7 -64 -16 -86 l-14
-40 47 -44 c119 -109 430 -289 518 -299 44 -4 45 -4 45 23 0 22 -23 51 -108
136 -59 60 -104 109 -100 109 4 0 32 9 63 21 63 23 82 47 64 81 -18 33 -41 50
-204 147 -82 49 -168 102 -190 118 -26 20 -77 86 -150 196 -108 164 -141 203
-109 130z"/>
<path d="M5489 23333 c-29 -32 -59 -78 -59 -91 0 -15 72 -94 113 -123 73 -53
117 -32 117 55 0 63 -22 131 -52 163 -31 34 -87 31 -119 -4z"/>
<path d="M4687 22562 c-17 -7 -16 -10 10 -36 39 -40 93 -62 223 -91 137 -31
203 -56 249 -93 57 -46 425 -182 491 -182 177 0 -365 291 -699 376 -100 26
-244 39 -274 26z"/>
<path d="M7470 22531 c0 -20 46 -157 79 -234 10 -24 33 -60 51 -81 63 -71 67
-35 10 96 -41 95 -112 222 -130 233 -6 3 -10 -3 -10 -14z"/>
<path d="M4468 22459 c-43 -24 -17 -103 86 -262 92 -143 145 -178 341 -227 61
-16 176 -56 254 -90 155 -66 306 -114 343 -108 17 2 24 11 26 31 12 99 -627
549 -916 646 -67 23 -108 26 -134 10z"/>
<path d="M4070 22188 c0 -14 13 -43 29 -65 28 -39 410 -421 435 -435 22 -12
213 -48 256 -48 119 0 105 74 -39 197 -174 149 -534 359 -635 370 -44 5 -46 4
-46 -19z"/>
<path d="M3971 21948 c6 -13 42 -66 79 -118 88 -124 119 -174 135 -219 13 -39
5 -71 -18 -71 -7 0 -61 33 -119 74 -130 90 -234 153 -270 161 -84 21 -16 -88
194 -313 79 -84 167 -182 196 -217 119 -145 241 -181 332 -99 102 92 118 297
34 439 -49 84 -176 175 -268 192 -38 7 -66 23 -131 78 -131 110 -190 143 -164
93z"/>
<path d="M4964 21398 c3 -18 24 -69 45 -114 41 -86 81 -123 138 -127 23 -2 29
2 31 23 6 53 -150 250 -197 250 -21 0 -23 -3 -17 -32z"/>
<path d="M8111 21351 c-20 -37 -53 -263 -48 -326 5 -60 23 -115 38 -115 29 0
55 199 45 349 -6 100 -17 127 -35 92z"/>
<path d="M6771 21228 c1 -168 9 -222 33 -226 28 -6 36 15 36 94 0 112 -31 254
-55 254 -12 0 -15 -21 -14 -122z"/>
<path d="M7326 21271 c-9 -10 -26 -42 -36 -70 -44 -113 -61 -241 -61 -447 0
-315 62 -536 182 -649 34 -31 60 -71 92 -137 52 -110 83 -142 134 -142 47 0
82 41 117 134 26 71 66 259 66 311 0 26 -3 29 -31 29 -45 0 -85 45 -94 104 -5
28 0 109 10 200 19 167 15 230 -16 270 -24 31 -77 42 -136 29 -50 -12 -42 -25
-68 122 -39 215 -100 311 -159 246z"/>
<path d="M8306 21258 c-41 -64 -102 -598 -68 -598 11 0 77 205 98 300 18 87
30 255 20 294 -8 32 -31 34 -50 4z"/>
<path d="M5424 21158 c-4 -13 -7 -66 -6 -119 2 -226 128 -665 283 -988 67
-141 124 -225 198 -294 47 -44 55 -48 93 -45 39 3 47 9 97 71 78 98 113 101
205 16 30 -28 72 -73 92 -100 19 -27 39 -49 44 -49 5 0 -7 37 -25 83 -19 45
-39 109 -45 142 -17 87 -7 107 72 137 61 23 63 25 66 62 5 59 -2 75 -79 182
-119 164 -305 380 -474 549 -161 161 -233 216 -270 201 -28 -10 -13 -83 41
-201 96 -208 125 -278 169 -407 49 -145 57 -190 29 -167 -91 76 -428 739 -460
907 -8 41 -20 49 -30 20z"/>
<path d="M4789 20794 c-5 -15 -14 -60 -20 -101 -11 -81 -7 -95 49 -155 46 -50
62 -34 62 62 0 150 -59 276 -91 194z"/>
<path d="M5279 20561 c-13 -10 -34 -36 -46 -58 l-23 -40 41 -64 c57 -89 107
-139 139 -139 40 0 50 18 50 90 0 167 -81 274 -161 211z"/>
<path d="M6220 18520 c0 -20 40 -113 56 -131 21 -23 60 -25 68 -3 13 34 6 92
-15 118 -17 21 -29 26 -65 26 -24 0 -44 -4 -44 -10z"/>
<path d="M8920 18210 c-39 -39 -17 -185 54 -361 32 -80 100 -204 117 -214 14
-9 30 65 36 166 11 188 -63 385 -157 418 -26 9 -34 7 -50 -9z"/>
<path d="M9368 16973 c-9 -16 -23 -52 -32 -82 -15 -52 -15 -54 9 -106 48 -100
86 -80 93 47 7 141 -28 212 -70 141z"/>
<path d="M10023 16066 c4 -24 26 -88 49 -142 41 -91 45 -98 83 -111 22 -8 56
-12 75 -11 31 3 35 6 38 35 5 47 -40 123 -119 205 -55 57 -72 68 -99 68 l-33
0 6 -44z"/>
<path d="M10662 15218 c-33 -33 -2 -169 73 -323 64 -132 126 -217 256 -348 84
-85 101 -98 126 -95 25 3 28 8 31 41 9 103 -148 424 -249 511 -22 18 -61 65
-89 104 -46 66 -104 122 -126 122 -6 0 -15 -5 -22 -12z"/>
<path d="M7282 7960 c-70 -25 -222 -106 -402 -214 -196 -118 -452 -242 -639
-310 -218 -79 -283 -125 -311 -223 -32 -105 23 -173 195 -242 153 -61 237
-114 326 -201 114 -112 165 -228 201 -452 10 -67 13 -597 13 -2743 0 -2517 -1
-2663 -18 -2725 -25 -93 -64 -168 -113 -216 -50 -50 -91 -72 -217 -118 -108
-38 -194 -91 -219 -134 -13 -21 -18 -52 -18 -104 0 -83 20 -135 60 -155 33
-17 172 -16 405 2 641 49 1270 55 1683 15 56 -5 123 -7 148 -3 87 12 140 69
151 162 9 76 -17 135 -74 172 -48 30 -77 37 -269 69 -377 62 -552 194 -610
460 -14 67 -17 352 -30 2785 -13 2648 -11 3173 15 3743 9 178 4 276 -15 327
-15 41 -58 88 -98 106 -52 24 -97 23 -164 -1z"/>
<path d="M19775 7947 c-39 -19 -155 -87 -258 -151 -290 -181 -450 -261 -731
-365 -169 -63 -205 -81 -258 -129 -48 -43 -68 -85 -68 -142 0 -94 43 -131 225
-197 218 -79 394 -210 456 -340 42 -88 67 -217 79 -413 8 -111 10 -985 8
-2670 -3 -2388 -4 -2509 -22 -2600 -35 -180 -97 -302 -183 -359 -25 -17 -87
-44 -139 -60 -230 -74 -307 -155 -289 -300 10 -77 27 -106 75 -125 69 -27 172
-29 470 -7 728 53 1123 66 1541 50 291 -12 319 -11 342 4 35 23 50 76 45 162
-3 69 -6 77 -38 110 -47 49 -114 71 -292 95 -191 26 -352 62 -409 90 -97 48
-154 129 -190 268 -27 103 -50 704 -31 814 25 141 90 225 270 344 221 146 306
173 369 120 16 -14 69 -91 118 -173 340 -563 833 -1217 1316 -1743 80 -87 120
-122 164 -145 56 -29 64 -30 179 -30 67 0 238 10 381 22 143 12 388 27 545 33
170 7 311 17 349 26 75 16 127 53 148 102 21 50 18 184 -4 231 -32 63 -58 71
-290 86 -174 11 -222 17 -293 40 -228 73 -404 198 -711 504 -281 282 -533 585
-810 976 -308 434 -441 657 -443 744 -1 43 1 46 104 144 371 354 665 571 985
727 285 140 485 195 795 220 248 19 320 68 320 217 0 85 -28 148 -80 178 -34
19 -56 20 -810 26 -783 7 -1028 16 -1310 46 -254 28 -286 23 -330 -49 -22 -37
-35 -123 -26 -172 9 -45 44 -96 83 -119 18 -10 91 -29 163 -42 260 -47 370
-104 370 -192 0 -39 -18 -78 -67 -146 -48 -65 -648 -578 -1096 -935 -176 -141
-273 -202 -321 -202 -33 0 -62 33 -71 78 -4 19 -8 1198 -10 2618 -3 2070 -6
2591 -17 2626 -17 58 -73 112 -131 126 -70 18 -97 15 -172 -21z"/>
<path d="M102 7390 c-18 -4 -41 -15 -52 -25 -31 -28 -53 -109 -48 -176 6 -90
35 -118 209 -209 162 -85 229 -128 309 -196 159 -135 228 -291 250 -561 14
-174 14 -4766 -1 -4963 -21 -294 -81 -480 -199 -612 -85 -96 -186 -146 -333
-167 -111 -16 -148 -30 -189 -71 -36 -36 -38 -41 -38 -104 0 -78 17 -124 55
-154 54 -42 92 -45 294 -23 325 36 495 45 921 44 404 0 513 -4 1019 -40 288
-20 387 -13 480 34 67 34 91 74 91 151 0 81 -36 135 -113 167 -21 9 -126 29
-235 45 -313 46 -458 80 -571 133 -68 32 -143 111 -172 182 l-24 60 -3 1307
-2 1307 25 17 c24 15 66 16 488 11 440 -6 617 -14 807 -37 261 -32 419 -226
530 -653 40 -154 55 -185 104 -221 22 -17 41 -21 95 -20 85 2 130 16 167 55
l29 30 -3 507 c-4 637 16 986 79 1341 32 176 34 213 14 250 -35 69 -206 112
-300 76 -60 -22 -91 -70 -110 -166 -72 -377 -88 -439 -132 -497 -35 -46 -88
-79 -158 -96 -81 -20 -736 -60 -1240 -75 -317 -9 -352 -5 -380 50 -13 24 -15
205 -15 1316 0 1244 1 1289 19 1330 48 104 159 116 981 103 589 -10 794 -19
969 -46 320 -49 486 -183 662 -534 32 -64 74 -154 93 -199 44 -104 74 -143
129 -170 53 -26 144 -28 193 -5 62 30 66 48 80 369 20 447 53 775 99 971 22
96 20 111 -17 131 -29 16 -61 18 -243 18 -115 0 -322 -6 -460 -13 -768 -39
-2018 -58 -2831 -43 -615 12 -810 21 -1034 50 -199 26 -250 30 -288 21z"/>
<path d="M11270 4469 c-358 -39 -687 -142 -1070 -334 -349 -176 -594 -359
-675 -506 -28 -51 -30 -61 -29 -159 0 -129 25 -201 89 -265 77 -77 223 -110
389 -86 259 37 431 175 589 474 69 130 133 221 202 286 111 103 189 124 371
101 263 -33 442 -144 541 -335 89 -172 111 -332 96 -705 -8 -219 -11 -249 -30
-286 -61 -117 -146 -157 -487 -229 -719 -152 -1189 -320 -1527 -544 -247 -164
-387 -327 -463 -539 -30 -85 -31 -91 -31 -267 0 -140 4 -198 19 -260 42 -180
121 -328 245 -458 132 -138 291 -228 500 -285 90 -24 110 -26 321 -26 187 0
244 4 340 22 229 42 399 101 700 242 255 119 377 170 410 170 41 0 111 -60
205 -174 198 -242 362 -285 683 -181 265 86 687 332 780 455 33 42 34 48 30
110 -9 126 -57 180 -158 180 -30 0 -109 -9 -175 -20 -185 -31 -290 -36 -356
-17 -71 21 -130 72 -160 139 -23 50 -24 66 -27 283 -2 127 1 687 7 1245 7 692
7 1046 0 1113 -28 272 -130 492 -292 631 -118 100 -292 177 -483 212 -106 19
-430 27 -554 13z m430 -2387 c19 -9 43 -33 55 -52 20 -34 20 -47 17 -540 l-3
-505 -26 -53 c-42 -88 -163 -164 -374 -232 -183 -60 -275 -74 -489 -75 -217 0
-269 9 -395 69 -175 83 -272 244 -290 482 -33 433 348 718 1195 894 161 34
260 38 310 12z"/>
<path d="M15775 4469 c-230 -23 -450 -80 -624 -161 -182 -84 -383 -242 -490
-387 -157 -212 -230 -502 -202 -802 42 -450 235 -692 796 -1000 159 -87 328
-170 565 -276 581 -261 814 -431 882 -646 27 -84 28 -229 3 -315 -50 -174
-177 -280 -404 -339 -181 -47 -529 -43 -756 9 -389 89 -679 301 -890 650 -54
91 -109 142 -169 157 -63 16 -111 4 -146 -35 -52 -60 -55 -87 -54 -469 0 -337
11 -502 35 -547 24 -44 234 -120 495 -177 336 -73 580 -101 949 -108 313 -6
458 5 667 48 524 108 915 416 1043 822 40 124 56 238 56 397 -1 229 -34 385
-121 557 -115 229 -295 388 -660 583 -159 85 -202 105 -555 262 -305 136 -571
266 -692 339 -215 130 -301 279 -291 507 3 82 8 107 34 162 76 161 243 250
531 281 203 22 411 -2 569 -65 248 -99 452 -274 641 -553 90 -133 112 -148
218 -146 79 2 176 31 212 65 29 27 29 53 -2 183 -40 170 -112 520 -135 655
-12 69 -28 135 -36 147 -45 70 -338 148 -709 189 -167 18 -633 27 -760 13z"/>
</g>
</svg>
