<?xml version="1.0" standalone="no"?>
<!DOCTYPE svg PUBLIC "-//W3C//DTD SVG 20010904//EN"
 "http://www.w3.org/TR/2001/REC-SVG-20010904/DTD/svg10.dtd">
<svg version="1.0" xmlns="http://www.w3.org/2000/svg"
 width="233.000000pt" height="198.000000pt" viewBox="0 0 233.000000 198.000000"
 preserveAspectRatio="xMidYMid meet">
<metadata>
Created by potrace 1.10, written by Peter Selinger 2001-2011
</metadata>
<g transform="translate(0.000000,198.000000) scale(0.100000,-0.100000)"
fill="#000000" stroke="none">
<path d="M278 1919 c-16 -9 -18 -30 -18 -212 0 -221 2 -227 55 -227 45 0 55
16 55 91 l0 66 52 6 c42 5 59 14 90 44 l38 37 0 -110 c0 -119 6 -134 50 -134
40 0 50 18 50 86 0 75 13 114 37 114 35 -1 53 -25 53 -70 0 -37 6 -48 43 -85
73 -74 162 -71 231 5 32 36 36 46 36 95 0 30 5 55 10 55 6 0 10 -30 10 -71 0
-68 2 -73 35 -106 33 -33 39 -35 82 -30 34 4 54 12 69 30 l21 25 27 -26 c52
-53 195 -27 204 36 3 19 8 16 47 -25 41 -42 46 -45 82 -39 21 4 57 6 80 6 32
-1 45 4 55 19 12 19 12 19 36 0 28 -22 82 -34 116 -25 14 3 38 18 55 32 38 31
43 87 11 127 -17 22 -18 26 -5 37 9 7 15 29 15 51 0 50 -34 74 -102 74 -40 0
-52 -5 -82 -34 l-36 -35 0 27 c0 36 -38 56 -75 39 -24 -11 -25 -15 -25 -101 0
-92 -12 -120 -45 -107 -12 4 -15 25 -15 101 0 92 -1 96 -25 107 -42 19 -73 -2
-77 -54 -4 -42 -4 -42 -15 -17 -13 29 -54 62 -91 74 -38 11 -90 -4 -127 -37
l-35 -30 0 26 c0 26 -24 46 -55 46 -9 0 -25 10 -34 22 l-18 21 -44 -34 c-24
-19 -51 -43 -60 -54 -17 -20 -17 -20 -41 2 -47 44 -125 48 -195 12 -18 -10
-26 -9 -40 3 -27 23 -57 30 -87 18 -18 -6 -34 -6 -51 2 -19 8 -31 8 -50 0 -24
-11 -25 -10 -25 21 0 42 -48 91 -105 106 -50 14 -144 14 -167 0z m171 -29 c57
-16 81 -46 81 -102 0 -38 -6 -54 -28 -79 -23 -26 -36 -31 -90 -36 l-62 -6 0
-78 0 -79 -35 0 -35 0 0 195 0 195 68 0 c37 0 82 -4 101 -10z m742 -120 c37 0
39 -2 39 -30 0 -28 -2 -30 -40 -30 l-41 0 3 -72 3 -73 43 2 c40 2 42 0 42 -26
0 -21 -6 -30 -22 -35 -46 -12 -79 -6 -103 19 -22 22 -25 32 -25 105 0 73 -2
80 -20 80 -32 0 -23 22 27 67 47 40 48 41 51 17 3 -21 9 -24 43 -24z m-561
-25 l0 -24 25 24 c29 29 64 32 95 7 22 -18 22 -18 2 -42 -17 -21 -22 -22 -36
-11 -9 8 -26 11 -40 7 -31 -8 -46 -51 -46 -132 l0 -64 -30 0 -30 0 0 130 0
130 30 0 c25 0 30 -4 30 -25z m312 15 c56 -16 88 -63 88 -129 0 -47 -4 -57
-33 -86 -59 -59 -159 -57 -211 6 -37 44 -37 124 0 168 37 45 91 59 156 41z
m498 -7 c33 -19 50 -51 50 -93 l0 -30 -85 0 c-92 0 -101 -7 -63 -47 25 -27 74
-30 118 -8 30 16 30 16 30 -14 0 -40 -28 -55 -102 -55 -52 -1 -61 2 -89 31
-59 58 -50 174 15 214 38 23 89 24 126 2z m160 -77 c0 -73 4 -98 16 -110 19
-20 34 -20 62 0 20 14 22 23 22 110 l0 94 30 0 30 0 0 -130 0 -130 -30 0 c-16
0 -30 5 -30 11 0 5 -10 3 -22 -5 -35 -25 -76 -20 -109 13 -28 29 -29 32 -29
135 l0 106 30 0 30 0 0 -94z m355 82 c18 -8 25 -19 25 -40 0 -33 2 -32 -43
-13 -34 14 -67 12 -67 -5 0 -5 20 -20 45 -35 58 -34 79 -65 70 -105 -11 -51
-75 -73 -144 -49 -27 9 -31 16 -31 45 l0 35 30 -16 c37 -19 80 -20 80 -1 0 8
-22 28 -49 45 -27 18 -52 39 -55 47 -28 74 56 130 139 92z m-715 -118 c0 -22
-3 -40 -7 -40 -5 0 -18 -3 -30 -6 -21 -6 -23 -3 -23 40 0 44 1 46 30 46 28 0
30 -2 30 -40z m571 -8 c15 -17 15 -20 -2 -31 -17 -10 -19 -8 -19 19 0 35 1 36
21 12z m-304 -34 c-3 -8 -6 -5 -6 6 -1 11 2 17 5 13 3 -3 4 -12 1 -19z m-79
-5 c-10 -2 -28 -2 -40 0 -13 2 -5 4 17 4 22 1 32 -1 23 -4z"/>
<path d="M350 1785 l0 -55 40 0 c42 0 80 26 80 55 0 29 -38 55 -80 55 l-40 0
0 -55z m85 0 c0 -14 -8 -21 -27 -23 -24 -3 -28 0 -28 23 0 23 4 26 28 23 19
-2 27 -9 27 -23z"/>
<path d="M842 1687 c-46 -49 -12 -127 54 -127 67 0 100 88 48 129 -35 28 -75
27 -102 -2z m87 -21 c7 -8 11 -27 9 -43 -3 -25 -7 -28 -43 -28 -36 0 -40 2
-43 28 -2 16 -1 35 2 43 7 18 60 18 75 0z"/>
<path d="M1340 1698 l-21 -23 51 -3 c62 -4 69 1 45 28 -24 26 -49 25 -75 -2z"/>
<path d="M588 1279 c-16 -9 -18 -30 -18 -212 0 -221 2 -227 55 -227 45 0 55
16 55 91 l0 66 52 6 c36 5 59 14 78 32 14 14 29 25 33 25 3 0 9 -17 13 -37 23
-134 150 -215 291 -185 32 7 70 20 84 31 25 19 25 19 35 -3 8 -20 16 -21 116
-21 l108 0 36 36 c50 50 57 108 20 162 -24 34 -25 43 -16 77 13 48 -5 105 -41
132 -46 34 -168 50 -210 28 -17 -9 -19 -22 -19 -108 0 -53 -3 -121 -6 -149 -6
-44 -9 -51 -22 -44 -11 6 -33 2 -64 -10 -115 -45 -197 -6 -198 94 0 37 5 53
24 72 32 32 88 41 146 25 25 -7 56 -13 70 -14 23 -1 25 2 25 49 0 48 -1 51
-40 70 -30 15 -60 20 -116 20 -68 0 -81 -4 -119 -30 -24 -16 -55 -47 -69 -69
l-26 -40 -3 30 c-5 41 -56 90 -108 103 -54 14 -143 14 -166 0z m171 -29 c57
-16 81 -46 81 -102 0 -38 -6 -54 -28 -79 -23 -26 -36 -31 -90 -36 l-62 -6 0
-78 0 -79 -35 0 -35 0 0 195 0 195 68 0 c37 0 82 -4 101 -10z m434 -9 c22 -9
27 -17 27 -45 l0 -34 -50 19 c-62 24 -105 24 -150 1 -73 -36 -100 -123 -60
-189 39 -65 112 -87 190 -58 84 31 80 31 80 -8 0 -35 -2 -37 -52 -52 -166 -49
-300 33 -302 184 -1 87 54 166 133 192 33 11 147 5 184 -10z m281 -6 c45 -30
52 -121 11 -151 -12 -9 -11 -13 10 -22 58 -27 69 -116 19 -163 -23 -22 -36
-24 -130 -27 l-104 -4 0 197 0 198 84 -5 c55 -4 92 -12 110 -23z"/>
<path d="M660 1145 l0 -55 40 0 c42 0 80 26 80 55 0 29 -38 55 -80 55 l-40 0
0 -55z m85 0 c0 -14 -8 -21 -27 -23 -24 -3 -28 0 -28 23 0 23 4 26 28 23 19
-2 27 -9 27 -23z"/>
<path d="M1340 1144 l0 -56 38 7 c96 18 92 105 -5 105 l-33 0 0 -56z m78 5 c2
-11 -6 -18 -23 -21 -21 -4 -25 -2 -25 19 0 20 4 24 22 21 13 -2 24 -10 26 -19z"/>
<path d="M1340 974 l0 -57 50 5 c120 12 121 108 2 108 l-52 0 0 -56z m110 7
c0 -21 -19 -31 -56 -31 -19 0 -24 5 -24 25 0 23 4 25 40 25 33 0 40 -4 40 -19z"/>
<path d="M138 639 c-16 -9 -18 -30 -18 -212 0 -145 3 -206 12 -215 15 -15 205
-16 245 -1 35 13 99 74 121 114 l16 30 8 -41 c6 -27 21 -53 49 -80 37 -36 44
-39 98 -39 37 1 67 7 83 17 24 16 28 16 64 -3 21 -10 52 -19 70 -19 37 0 94
36 111 70 l13 25 0 -31 c0 -40 21 -58 60 -52 29 4 30 3 30 -32 0 -61 56 -100
146 -100 52 0 59 3 95 39 28 27 39 47 39 68 0 27 2 29 30 25 50 -7 60 10 60
103 0 86 12 114 45 101 12 -4 15 -24 15 -94 0 -95 7 -112 50 -112 44 0 50 16
50 127 0 165 -26 196 -162 188 -101 -6 -94 -6 -144 1 -23 3 -67 1 -98 -6 -44
-9 -62 -19 -85 -47 l-29 -35 -4 44 c-3 23 0 53 5 65 12 28 4 48 -27 69 -24 15
-28 15 -52 -1 -22 -14 -25 -23 -23 -58 1 -23 1 -85 0 -137 l-1 -95 -24 30
c-21 26 -23 32 -10 46 8 8 14 32 14 52 0 47 -35 72 -101 72 -39 0 -53 -5 -78
-29 l-29 -28 -35 26 c-66 51 -143 43 -195 -20 l-29 -34 -16 59 c-30 108 -121
161 -277 161 -41 -1 -83 -5 -92 -11z m211 -30 c142 -30 196 -204 98 -316 -46
-52 -80 -63 -202 -63 l-105 0 0 195 0 195 80 0 c43 0 102 -5 129 -11z m740
-33 c22 -26 -10 -63 -44 -50 -15 6 -21 45 -8 57 11 12 40 8 52 -7z m-369 -103
c33 -19 50 -51 50 -93 l0 -30 -85 0 c-92 0 -101 -7 -63 -47 25 -27 74 -30 118
-8 30 16 30 16 30 -14 0 -40 -28 -55 -102 -55 -52 -1 -61 2 -89 31 -59 58 -50
174 15 214 38 23 89 24 126 2z m225 5 c18 -8 25 -19 25 -40 0 -33 2 -32 -43
-13 -34 14 -67 12 -67 -5 0 -5 20 -20 45 -35 58 -34 79 -65 70 -105 -11 -51
-75 -73 -144 -49 -27 9 -31 16 -31 45 l0 35 30 -16 c37 -19 80 -20 80 -1 0 8
-22 28 -49 45 -27 18 -52 39 -55 47 -28 74 56 130 139 92z m145 -118 l0 -130
-30 0 -30 0 0 130 0 130 30 0 30 0 0 -130z m270 105 c0 -18 -5 -25 -20 -25
-17 0 -18 -3 -10 -26 8 -20 6 -35 -7 -63 -15 -29 -27 -38 -66 -49 -26 -7 -45
-17 -42 -22 3 -4 27 -13 54 -20 91 -22 117 -76 62 -131 -26 -25 -37 -29 -88
-29 -40 0 -68 6 -90 20 -28 17 -33 25 -33 59 0 29 6 44 21 55 14 10 19 20 15
34 -4 12 -1 26 7 34 12 12 12 17 -4 37 -24 29 -24 82 -1 111 21 25 65 38 145
39 54 1 57 0 57 -24z m93 13 c4 -10 7 -10 18 0 17 15 79 15 100 -1 31 -23 39
-56 39 -151 l0 -96 -30 0 -30 0 0 86 c0 119 -21 148 -78 108 -20 -14 -22 -23
-22 -105 l0 -89 -30 0 -30 0 0 130 0 130 29 0 c16 0 31 -6 34 -12z m-93 -168
l0 -61 -30 16 -31 16 26 30 c14 17 25 37 25 45 0 8 2 14 5 14 3 0 5 -27 5 -60z
m-556 20 c-22 -9 -29 -6 -20 9 4 6 14 7 23 4 15 -6 14 -7 -3 -13z m326 -45
c-8 -40 -8 -40 -9 15 0 35 3 50 8 40 5 -8 5 -33 1 -55z m-422 28 c-10 -2 -28
-2 -40 0 -13 2 -5 4 17 4 22 1 32 -1 23 -4z"/>
<path d="M200 419 l0 -142 65 6 c36 4 78 12 93 19 39 19 72 74 72 120 0 84
-68 138 -173 138 l-57 0 0 -141z m168 84 c23 -17 27 -29 30 -74 1 -40 -3 -60
-16 -77 -18 -23 -72 -41 -124 -42 l-28 0 0 111 0 111 55 -4 c34 -3 66 -13 83
-25z"/>
<path d="M620 418 l-21 -23 51 -3 c62 -4 69 1 45 28 -24 26 -49 25 -75 -2z"/>
<path d="M1199 409 c-9 -18 -7 -25 9 -41 23 -24 58 -17 67 13 14 44 -53 69
-76 28z m51 -19 c0 -5 -7 -10 -15 -10 -8 0 -15 5 -15 10 0 6 7 10 15 10 8 0
15 -4 15 -10z"/>
<path d="M1180 195 c-20 -24 5 -45 55 -45 53 0 80 24 50 46 -25 19 -89 18
-105 -1z"/>
<path d="M1673 605 c-20 -14 -21 -23 -22 -196 -2 -196 2 -209 49 -209 47 0 51
16 50 177 0 81 2 160 6 174 4 21 0 31 -21 48 -33 25 -35 25 -62 6z m56 -29
c22 -26 -10 -63 -44 -50 -15 6 -21 45 -8 57 11 12 40 8 52 -7z m1 -216 l0
-130 -30 0 -30 0 0 130 0 130 30 0 30 0 0 -130z"/>
<path d="M1785 507 c-12 -6 -15 -34 -15 -145 0 -148 4 -162 50 -162 42 0 50
17 50 106 0 85 12 113 45 100 12 -4 15 -24 15 -94 0 -100 9 -117 60 -110 29 4
30 3 30 -32 0 -61 56 -100 146 -100 52 0 59 3 96 39 35 36 39 44 36 83 -3 37
-8 46 -40 67 l-37 24 24 29 c14 16 28 47 31 69 4 22 11 42 15 45 5 3 9 21 9
39 0 55 -49 68 -159 44 -39 -8 -58 -19 -80 -46 l-29 -35 -16 29 c-25 50 -54
62 -140 60 -42 -1 -83 -5 -91 -10z m68 -29 c4 -10 7 -10 18 0 17 15 79 15 100
-1 31 -23 39 -56 39 -151 l0 -96 -30 0 -30 0 0 86 c0 119 -21 148 -78 108 -20
-14 -22 -23 -22 -105 l0 -89 -30 0 -30 0 0 130 0 130 29 0 c16 0 31 -6 34 -12z
m427 -13 c0 -18 -5 -25 -20 -25 -17 0 -18 -3 -10 -26 8 -20 6 -35 -7 -63 -15
-29 -27 -38 -66 -49 -26 -7 -45 -17 -42 -22 3 -4 27 -13 54 -20 91 -22 117
-76 62 -131 -26 -25 -37 -29 -88 -29 -40 0 -68 6 -90 20 -28 17 -33 25 -33 59
0 29 6 44 21 55 14 10 19 20 15 34 -4 12 -1 26 7 34 12 12 12 17 -4 37 -24 29
-24 82 -1 111 21 25 65 38 145 39 54 1 57 0 57 -24z m-230 -180 c-8 -40 -8
-40 -9 15 0 35 3 50 8 40 5 -8 5 -33 1 -55z"/>
<path d="M2119 409 c-9 -18 -7 -25 9 -41 23 -24 58 -17 67 13 14 44 -53 69
-76 28z m51 -19 c0 -5 -7 -10 -15 -10 -8 0 -15 5 -15 10 0 6 7 10 15 10 8 0
15 -4 15 -10z"/>
<path d="M2100 195 c-20 -24 5 -45 55 -45 53 0 80 24 50 46 -25 19 -89 18
-105 -1z"/>
</g>
</svg>
