<?xml version="1.0" standalone="no"?>
<!DOCTYPE svg PUBLIC "-//W3C//DTD SVG 20010904//EN"
 "http://www.w3.org/TR/2001/REC-SVG-20010904/DTD/svg10.dtd">
<svg version="1.0" xmlns="http://www.w3.org/2000/svg"
 width="870.000000pt" height="270.000000pt" viewBox="0 0 870.000000 270.000000"
 preserveAspectRatio="xMidYMid meet">
<metadata>
Created by potrace 1.16, written by Peter Selinger 2001-2019
</metadata>
<g transform="translate(0.000000,270.000000) scale(0.100000,-0.100000)"
fill="#000000" stroke="none">
<path d="M1433 2574 c-7 -3 -13 -9 -13 -14 0 -5 -15 -35 -34 -67 -19 -32 -75
-150 -124 -263 -235 -537 -313 -689 -507 -985 -89 -136 -174 -244 -279 -353
-71 -74 -78 -85 -63 -94 63 -35 141 -136 211 -276 20 -40 38 -72 40 -72 1 0
16 7 32 15 49 24 143 43 269 55 102 10 189 23 230 34 31 9 105 48 105 56 0 6
6 10 13 10 15 0 50 51 76 114 58 133 70 328 47 746 -28 537 0 955 64 955 38 0
96 -192 125 -415 8 -63 17 -126 20 -140 3 -14 9 -67 15 -118 6 -52 12 -108 15
-125 2 -18 9 -77 15 -132 17 -149 38 -296 65 -430 12 -66 26 -137 29 -157 7
-36 9 -38 45 -38 98 0 182 -51 359 -216 109 -103 184 -165 190 -159 2 2 -14
43 -36 92 -101 222 -243 598 -387 1023 -199 591 -315 846 -419 925 -33 25 -81
39 -103 29z"/>
<path d="M1229 2333 c-198 -320 -333 -460 -484 -502 -22 -6 -51 -20 -65 -31
l-25 -20 40 1 c22 0 64 10 94 23 105 46 194 135 331 334 36 52 66 89 68 84 3
-11 -55 -196 -74 -234 -8 -15 -32 -37 -53 -48 -21 -10 -76 -50 -122 -88 -197
-161 -285 -205 -441 -221 -14 -2 -78 -94 -78 -112 0 -11 47 -56 122 -116 67
-54 135 -110 151 -124 l30 -25 -26 -40 c-75 -119 -219 -272 -340 -360 -34 -24
-55 -44 -48 -44 37 0 229 173 333 300 187 230 457 754 597 1162 22 64 47 130
56 147 33 64 5 27 -66 -86z"/>
<path d="M2610 2171 c0 -5 19 -12 43 -16 93 -15 128 -47 141 -130 8 -45 -19
-658 -34 -800 -21 -189 -49 -243 -140 -266 -28 -7 -50 -16 -50 -21 0 -4 101
-8 225 -8 211 0 279 9 184 24 -53 9 -110 39 -128 67 -24 40 -30 205 -19 579 9
335 13 394 25 365 2 -5 106 -235 232 -510 144 -317 232 -500 241 -500 13 0 71
121 477 1000 l28 60 6 -145 c4 -80 7 -295 8 -478 1 -358 -2 -384 -51 -416 -12
-8 -42 -18 -66 -22 -113 -18 -20 -24 374 -24 236 0 424 4 418 8 -5 5 -28 14
-52 21 -25 7 -49 22 -58 36 -15 23 -15 31 1 98 9 39 31 113 49 162 l31 90 178
3 178 2 17 -42 c10 -24 38 -98 61 -165 52 -148 51 -168 -14 -184 -25 -6 -48
-15 -51 -20 -3 -5 81 -9 190 -9 108 0 196 3 196 8 0 4 -21 14 -48 22 -63 20
-92 65 -159 245 -225 604 -308 818 -320 822 -5 2 -38 -70 -73 -159 -121 -312
-212 -544 -262 -673 -60 -153 -91 -203 -138 -228 -42 -22 -129 -18 -179 8 -60
31 -62 42 -76 550 -6 253 -9 484 -5 513 9 70 36 98 112 113 32 6 58 16 58 20
0 5 -66 9 -148 9 l-147 0 -164 -347 c-90 -192 -196 -417 -235 -500 -38 -84
-73 -153 -77 -153 -4 0 -16 21 -27 48 -11 26 -51 110 -87 187 -73 152 -134
279 -200 420 -24 50 -70 147 -103 218 l-61 127 -151 0 c-84 0 -150 -4 -150 -9z
m2146 -562 c40 -106 74 -200 74 -206 0 -10 -39 -13 -161 -13 -150 0 -161 1
-154 18 15 35 127 338 138 370 6 18 15 31 20 29 6 -2 43 -91 83 -198z"/>
<path d="M5107 2043 c-2 -4 -8 -57 -11 -118 -4 -60 -9 -122 -12 -137 -10 -52
20 -30 44 32 29 75 75 124 127 139 22 6 82 11 133 11 l92 0 0 -447 c0 -280 -4
-462 -11 -486 -13 -47 -43 -75 -88 -83 -104 -16 -57 -23 169 -22 172 0 235 3
210 9 -162 44 -150 -3 -150 567 l0 462 108 0 c163 -1 202 -25 248 -157 26 -73
45 -70 39 5 -3 31 -7 96 -11 145 l-6 87 -27 -19 c-26 -19 -48 -20 -415 -22
-386 -2 -387 -2 -410 20 -13 13 -26 19 -29 14z"/>
<path d="M7351 1950 c-183 -474 -336 -859 -357 -902 -28 -55 -63 -85 -110 -94
-79 -15 -23 -24 143 -24 97 0 173 4 167 8 -5 5 -28 14 -52 21 -25 7 -49 22
-59 37 -15 24 -15 31 10 130 15 57 37 130 49 162 l23 57 178 0 179 0 23 -56
c32 -80 95 -266 95 -282 0 -22 -32 -45 -72 -52 -85 -16 -27 -25 157 -25 182 0
242 9 161 24 -81 15 -111 68 -228 396 -29 80 -206 547 -243 638 -9 23 -21 42
-25 42 -5 0 -22 -36 -39 -80z m73 -338 c42 -112 76 -207 76 -213 0 -5 -66 -9
-161 -9 -125 0 -160 3 -156 13 2 6 37 100 76 207 72 194 81 214 86 208 1 -2
37 -94 79 -206z"/>
<path d="M6060 1996 c0 -8 17 -16 40 -19 58 -7 87 -30 100 -77 7 -27 10 -181
8 -458 -3 -474 -1 -461 -80 -483 -24 -6 -50 -14 -58 -18 -8 -3 151 -7 354 -9
203 -1 371 0 374 3 6 6 52 205 52 228 0 34 -19 16 -58 -55 -22 -40 -51 -83
-64 -95 -40 -37 -102 -53 -210 -53 -115 0 -150 13 -167 61 -7 21 -11 169 -11
448 0 376 2 419 18 451 17 34 44 49 115 65 15 3 25 10 22 15 -3 5 -96 9 -220
9 -169 0 -215 -3 -215 -13z"/>
<path d="M7980 1996 c0 -11 9 -16 28 -16 44 0 89 -34 102 -77 8 -26 10 -171 8
-460 -3 -410 -4 -422 -24 -450 -14 -19 -37 -32 -69 -40 -26 -7 -50 -14 -53
-18 -3 -3 114 -5 259 -5 231 0 272 2 332 19 37 11 83 29 102 41 l35 22 0 224
0 223 -32 17 c-18 10 -58 25 -88 34 l-55 16 60 28 c33 15 72 39 88 53 27 27
27 27 27 164 l0 138 -36 29 c-69 57 -111 64 -411 70 -247 4 -273 3 -273 -12z
m510 -50 c78 -39 117 -123 106 -229 -14 -135 -85 -187 -257 -187 l-89 0 2 217
3 218 30 7 c52 11 157 -2 205 -26z m-58 -457 c67 -14 104 -33 146 -73 58 -54
76 -100 77 -196 0 -77 -3 -90 -31 -140 -22 -38 -46 -64 -79 -85 -43 -27 -59
-30 -140 -33 -86 -4 -94 -2 -121 21 l-29 25 -3 246 -3 246 65 0 c36 0 89 -5
118 -11z"/>
</g>
</svg>
