<?xml version="1.0" standalone="no"?>
<!DOCTYPE svg PUBLIC "-//W3C//DTD SVG 20010904//EN"
 "http://www.w3.org/TR/2001/REC-SVG-20010904/DTD/svg10.dtd">
<svg version="1.0" xmlns="http://www.w3.org/2000/svg"
 width="1800.000000pt" height="1856.000000pt" viewBox="0 0 1800.000000 1856.000000"
 preserveAspectRatio="xMidYMid meet">

<g transform="translate(0.000000,1856.000000) scale(0.100000,-0.100000)"
fill="#000000" stroke="none">
<path d="M12565 18550 c-571 -37 -1143 -131 -1639 -270 l-145 -41 -118 20
c-715 119 -1574 133 -2138 36 -466 -80 -945 -246 -1316 -455 l-93 -52 -190 60
c-728 232 -1473 383 -2181 442 -358 30 -874 23 -1215 -16 -441 -50 -903 -168
-1265 -324 -1039 -445 -1746 -1304 -2056 -2495 -153 -589 -216 -1299 -179
-2008 48 -907 481 -2920 964 -4478 388 -1251 804 -2236 1229 -2913 484 -768
1002 -1192 1592 -1302 147 -28 413 -25 552 4 267 57 513 173 731 344 l64 50
63 -65 c234 -241 575 -412 1020 -511 698 -155 1380 -117 1950 109 60 24 110
43 111 42 1 -1 6 -186 13 -412 31 -1075 90 -1710 202 -2185 34 -143 167 -551
245 -753 127 -328 280 -577 484 -791 296 -309 645 -487 1105 -563 166 -27 548
-25 745 6 285 43 683 141 943 231 727 251 1239 701 1586 1392 352 699 549
1688 601 3008 10 254 23 442 37 531 l5 37 257 -6 c535 -10 1101 64 1581 208
530 160 1116 505 1485 875 182 182 303 364 371 560 26 74 28 94 32 273 4 188
3 196 -23 280 -102 325 -345 543 -698 624 -128 30 -393 30 -552 0 -60 -11
-195 -36 -300 -55 -209 -39 -362 -60 -560 -77 -210 -19 -203 -39 -66 200 624
1086 1168 2318 1536 3480 604 1907 751 3488 409 4409 -79 211 -188 395 -349
591 -598 725 -1333 1256 -2188 1581 -501 190 -1039 312 -1617 364 -207 19
-818 28 -1025 15z m955 -505 c1265 -111 2321 -583 3137 -1402 139 -140 309
-334 406 -461 295 -393 394 -1107 286 -2077 -213 -1916 -1151 -4394 -2406
-6358 -63 -98 -111 -182 -108 -187 4 -6 28 -21 54 -35 316 -160 933 -158 1765
5 206 40 335 52 436 39 182 -22 300 -100 362 -236 31 -67 31 -213 0 -297 -82
-223 -382 -513 -777 -751 -154 -93 -385 -208 -523 -261 -637 -247 -1666 -335
-2202 -190 -30 9 -56 14 -57 12 -2 -2 -21 -156 -43 -342 -156 -1355 -322
-2580 -405 -2984 -200 -980 -643 -1514 -1505 -1815 -248 -86 -590 -169 -835
-201 -250 -33 -583 -19 -790 32 -601 149 -1008 535 -1303 1235 -95 227 -132
381 -177 730 -77 611 -116 1495 -128 2882 l-2 249 -80 -67 c-316 -263 -717
-439 -1160 -511 -136 -21 -519 -30 -682 -15 -708 66 -1208 304 -1325 629 -29
80 -28 198 1 274 85 221 330 361 811 464 571 121 780 197 919 333 72 71 351
415 358 443 4 14 -7 17 -74 23 -308 25 -581 97 -840 220 l-113 53 -32 -37
c-18 -21 -110 -121 -204 -223 -342 -371 -733 -816 -1080 -1228 -284 -337 -456
-491 -669 -598 -309 -155 -644 -153 -960 6 -274 137 -560 416 -830 810 -484
708 -987 1926 -1423 3452 -379 1325 -712 2904 -783 3720 -15 177 -16 773 0
970 51 666 172 1180 386 1648 306 670 816 1185 1465 1478 398 180 804 281
1345 335 197 20 773 17 1015 -5 748 -67 1592 -251 2288 -499 l151 -54 88 58
c414 269 930 450 1489 523 406 54 928 44 1414 -25 133 -19 444 -77 515 -97 23
-6 55 0 143 30 505 169 1186 287 1867 322 144 7 646 -4 815 -19z"/>
<path d="M12665 17544 c-248 -18 -353 -28 -495 -45 -173 -20 -508 -75 -544
-89 -17 -6 8 -21 134 -82 829 -399 1559 -1015 2152 -1818 394 -533 746 -1205
902 -1723 62 -204 66 -247 56 -563 -11 -319 -22 -438 -84 -852 -73 -486 -80
-563 -81 -887 0 -173 5 -334 13 -400 7 -60 28 -243 47 -405 48 -405 64 -599
72 -845 17 -583 -89 -1082 -324 -1525 -31 -58 -62 -114 -70 -126 -12 -19 -10
-26 28 -72 22 -29 44 -52 49 -52 15 0 283 443 463 765 772 1386 1374 2933
1681 4325 284 1291 280 2311 -13 2715 -123 170 -427 488 -626 656 -493 415
-1060 702 -1710 867 -430 109 -773 151 -1275 156 -179 2 -347 2 -375 0z"/>
<path d="M9060 17343 c-210 -20 -270 -27 -370 -44 -652 -111 -1181 -380 -1630
-829 -479 -478 -830 -1133 -1059 -1976 -98 -358 -192 -890 -217 -1224 l-7 -91
183 90 c366 181 693 290 1055 353 113 20 164 23 395 22 287 0 357 -9 536 -69
380 -128 658 -411 798 -813 79 -227 191 -847 235 -1297 44 -446 42 -899 -5
-1270 -61 -484 -169 -834 -452 -1470 -119 -269 -270 -664 -355 -930 -48 -153
-60 -195 -53 -195 3 0 39 5 81 11 230 32 538 -83 726 -271 113 -113 231 -309
277 -460 50 -164 53 -204 42 -660 -29 -1249 4 -2613 80 -3400 40 -410 78 -614
146 -789 155 -397 356 -676 604 -836 87 -57 129 -77 235 -115 304 -108 639
-104 1108 11 543 134 892 316 1120 587 220 261 349 597 442 1149 93 544 302
2162 400 3088 14 132 27 256 31 275 3 19 9 150 13 290 7 193 14 279 30 355 84
404 293 645 666 765 39 13 72 24 73 26 4 3 -74 107 -208 274 -192 241 -372
538 -487 805 -22 50 -125 246 -230 435 -259 469 -311 567 -450 845 -374 746
-587 1331 -678 1855 -33 187 -46 536 -26 693 65 513 345 879 817 1066 114 45
302 93 454 116 144 22 553 31 749 16 84 -7 156 -10 159 -7 15 16 -153 410
-277 651 -325 629 -771 1215 -1263 1663 -864 785 -1872 1217 -3043 1302 -128
9 -561 12 -645 3z"/>
<path d="M3890 17304 c-288 -25 -468 -50 -648 -90 -546 -122 -969 -338 -1311
-669 -487 -471 -767 -1140 -861 -2050 -29 -287 -37 -666 -20 -973 40 -726 391
-2409 785 -3772 635 -2195 1354 -3599 1998 -3901 131 -61 260 -71 380 -30 177
61 315 173 534 434 354 422 836 971 1186 1351 l156 170 -122 120 c-461 457
-731 1041 -788 1706 -16 178 -6 426 25 670 62 482 81 835 73 1380 -4 223 -13
513 -21 645 -18 281 -20 496 -6 725 51 838 219 1640 485 2310 67 170 225 500
314 655 153 269 365 557 566 772 l105 112 -112 35 c-647 200 -1229 321 -1838
382 -146 14 -771 27 -880 18z"/>
<path d="M13565 13220 c-227 -25 -402 -72 -550 -148 -124 -63 -252 -191 -308
-306 -62 -127 -88 -245 -94 -427 -9 -247 29 -493 127 -826 167 -571 417 -1118
963 -2103 99 -179 199 -365 222 -415 139 -293 165 -345 173 -345 13 0 74 147
117 282 76 241 108 479 108 803 0 257 -7 353 -63 835 -64 549 -73 677 -67
1000 5 311 18 438 86 890 41 273 65 476 76 637 6 90 5 93 -17 97 -118 26 -625
42 -773 26z m84 -250 c138 -18 221 -76 221 -156 0 -51 -57 -150 -126 -219
-154 -153 -359 -193 -537 -104 -205 103 -267 258 -142 353 128 98 380 152 584
126z"/>
<path d="M7170 13125 c-431 -62 -941 -257 -1292 -494 l-113 -77 1 -129 c1 -72
7 -221 13 -333 14 -254 14 -931 1 -1168 -14 -246 -36 -482 -67 -719 -86 -664
42 -1208 400 -1695 78 -106 246 -282 352 -370 299 -245 669 -393 1042 -417
l101 -6 11 44 c61 240 270 807 443 1199 146 331 197 457 257 644 231 709 238
1539 25 2630 -80 407 -139 544 -303 698 -84 80 -210 146 -341 179 -110 27
-388 35 -530 14z m510 -301 c92 -17 191 -52 255 -92 154 -95 166 -224 32 -355
-169 -165 -416 -194 -617 -72 -104 63 -214 196 -239 290 -12 43 -4 145 11 145
5 0 26 13 46 30 94 75 281 95 512 54z"/>
<path d="M14350 7134 c-151 -46 -214 -77 -273 -136 -93 -93 -137 -237 -140
-458 l-2 -145 45 -22 c56 -27 177 -58 295 -75 116 -17 570 -17 725 0 375 41
728 117 961 207 119 46 339 159 477 244 155 97 373 263 360 276 -3 3 -38 -2
-79 -10 -464 -98 -1078 -148 -1425 -116 -310 29 -562 105 -743 226 -38 25 -73
45 -77 45 -5 -1 -61 -17 -124 -36z"/>
<path d="M8185 7072 c-81 -48 -160 -134 -433 -473 -153 -191 -254 -292 -362
-364 -87 -58 -226 -123 -360 -170 -104 -36 -433 -119 -670 -170 -132 -28 -336
-90 -345 -104 -8 -13 159 -96 261 -130 300 -99 777 -142 1088 -97 513 74 927
316 1251 730 93 119 115 172 115 272 0 96 -18 162 -72 266 -55 107 -127 179
-225 225 -107 52 -178 56 -248 15z"/>
</g>
</svg>
