<?xml version="1.0" standalone="no"?>
<!DOCTYPE svg PUBLIC "-//W3C//DTD SVG 20010904//EN"
 "http://www.w3.org/TR/2001/REC-SVG-20010904/DTD/svg10.dtd">
<svg version="1.0" xmlns="http://www.w3.org/2000/svg"
 width="750.000000pt" height="375.000000pt" viewBox="0 0 750.000000 375.000000"
 preserveAspectRatio="xMidYMid meet">

<g transform="translate(0.000000,375.000000) scale(0.100000,-0.100000)"
fill="#000000" stroke="none">
<path d="M1690 2440 l0 -170 128 0 128 0 67 -68 67 -68 0 -85 0 -85 -68 -67
-68 -67 -127 0 -127 0 0 -170 0 -170 170 0 170 0 0 128 0 128 68 67 68 67 127
0 127 0 0 170 0 170 -128 0 -128 0 -67 68 -67 68 0 127 0 127 -170 0 -170 0 0
-170z m220 0 l0 -50 -50 0 -50 0 0 50 0 50 50 0 50 0 0 -50z m0 -780 l0 -50
-50 0 -50 0 0 50 0 50 50 0 50 0 0 -50z"/>
<path d="M5540 1955 l0 -75 -40 0 -40 0 0 -60 0 -60 40 0 40 0 0 -153 c0 -129
3 -158 19 -187 27 -52 73 -75 151 -75 95 0 100 3 100 74 l0 61 -44 -6 c-36 -5
-47 -3 -65 15 -19 19 -21 32 -21 146 l0 125 60 0 60 0 0 60 0 60 -60 0 -60 0
0 75 0 75 -70 0 -70 0 0 -75z"/>
<path d="M2860 1883 c-8 -3 -27 -15 -42 -25 -28 -19 -28 -19 -28 1 0 19 -6 21
-75 21 l-75 0 0 -360 0 -360 75 0 75 0 0 115 0 114 46 -24 c80 -42 169 -29
239 36 58 54 86 121 86 210 1 169 -92 280 -232 278 -30 0 -61 -3 -69 -6z m74
-127 c72 -30 103 -118 71 -202 -31 -82 -122 -110 -184 -58 -30 25 -31 27 -31
118 0 100 6 115 55 141 37 18 47 19 89 1z"/>
<path d="M3993 1870 c-35 -16 -43 -16 -43 -5 0 12 -16 15 -75 15 l-75 0 0
-360 0 -360 75 0 75 0 0 114 0 113 47 -23 c75 -38 164 -26 231 32 110 94 122
300 25 413 -66 78 -170 102 -260 61z m124 -126 c39 -25 56 -70 51 -142 -4 -59
-7 -67 -41 -98 -41 -38 -87 -45 -136 -19 -38 19 -41 30 -41 139 0 76 3 96 18
109 41 38 100 42 149 11z"/>
<path d="M4600 1883 c-8 -3 -27 -15 -42 -25 -28 -19 -28 -19 -28 1 0 19 -6 21
-70 21 l-70 0 0 -360 0 -360 70 0 70 0 0 115 0 115 43 -23 c63 -33 147 -30
210 6 58 35 91 83 112 165 37 143 -25 289 -141 338 -33 14 -125 18 -154 7z
m106 -139 c27 -18 54 -82 54 -130 0 -48 -22 -96 -56 -123 -41 -32 -118 -25
-151 13 -20 24 -23 38 -23 115 0 93 6 106 65 140 24 13 79 6 111 -15z"/>
<path d="M5104 1876 c-45 -20 -102 -74 -127 -120 -30 -56 -32 -222 -3 -276 49
-93 118 -134 226 -135 99 0 160 28 201 93 45 71 41 82 -32 82 -55 0 -64 -3
-89 -30 -59 -64 -173 -26 -187 63 l-6 37 177 0 176 0 0 43 c0 105 -55 202
-135 238 -48 22 -155 25 -201 5z m158 -123 c19 -17 39 -68 31 -77 -4 -3 -51
-6 -105 -6 -106 0 -113 4 -81 50 39 57 110 72 155 33z"/>
<path d="M3230 1677 c0 -193 1 -206 23 -247 45 -86 157 -115 250 -66 43 23 45
24 50 5 4 -16 15 -19 76 -19 l71 0 0 265 0 265 -75 0 -75 0 0 -179 0 -179 -31
-26 c-38 -33 -79 -33 -116 -2 l-28 24 -3 181 -3 181 -70 0 -69 0 0 -203z"/>
</g>
</svg>
