<?xml version="1.0" standalone="no"?>
<!DOCTYPE svg PUBLIC "-//W3C//DTD SVG 20010904//EN"
 "http://www.w3.org/TR/2001/REC-SVG-20010904/DTD/svg10.dtd">
<svg version="1.0" xmlns="http://www.w3.org/2000/svg"
 width="383.000000pt" height="201.000000pt" viewBox="0 0 383.000000 201.000000"
 preserveAspectRatio="xMidYMid meet">
<metadata>
Created by potrace 1.16, written by Peter Selinger 2001-2019
</metadata>
<g transform="translate(0.000000,201.000000) scale(0.100000,-0.100000)"
fill="#000000" stroke="none">
<path d="M157 1055 c-98 -35 -133 -134 -75 -217 17 -25 86 -56 196 -89 109
-32 97 -131 -16 -131 -55 0 -101 20 -131 58 l-20 26 -40 -23 c-47 -26 -45 -37
20 -92 71 -61 197 -74 286 -28 68 34 97 104 73 175 -16 50 -46 70 -158 107
-107 35 -132 51 -132 85 0 72 107 84 178 19 l37 -33 33 27 c38 30 36 44 -10
80 -62 49 -163 65 -241 36z"/>
<path d="M683 957 c-29 -56 -88 -171 -133 -255 -44 -84 -80 -155 -80 -157 0
-3 24 -5 53 -5 l52 0 52 103 c29 56 89 170 133 252 44 83 80 153 80 158 0 4
-24 7 -52 7 l-53 0 -52 -103z"/>
<path d="M973 1027 c-12 -17 -41 -60 -65 -93 -139 -198 -148 -213 -148 -251
l0 -38 130 3 130 4 0 -56 0 -56 50 0 50 0 0 55 0 55 45 -4 45 -4 0 44 0 44
-45 0 -45 0 0 165 0 165 -62 0 c-60 0 -64 -2 -85 -33z m47 -197 l0 -100 -37
-1 c-21 -1 -55 -2 -76 -3 -20 0 -37 0 -37 1 0 1 23 34 51 75 27 40 58 85 67
100 9 16 20 28 25 28 4 0 7 -45 7 -100z"/>
<path d="M1365 806 l0 -254 53 -4 52 -3 0 113 0 112 110 0 110 0 0 -110 0
-110 55 0 55 0 0 255 0 255 -55 0 -55 0 0 -100 0 -100 -110 0 -110 0 0 100 0
100 -52 0 -53 0 0 -254z"/>
<path d="M1932 858 c-39 -112 -80 -227 -91 -256 l-20 -53 52 3 51 3 15 50 c9
28 20 53 25 57 13 8 159 8 173 0 5 -4 18 -31 27 -59 l18 -53 55 0 c49 0 54 2
48 18 -12 30 -77 213 -124 352 l-47 135 -55 3 -56 3 -71 -203z"/>
<path d="M2320 803 l0 -258 51 4 52 3 -5 164 c-3 90 -2 164 2 164 5 0 93 -124
208 -296 20 -31 27 -34 72 -34 l50 0 0 255 0 255 -47 0 -48 0 3 -165 c3 -166
-3 -193 -30 -141 -44 83 -165 255 -176 251 -7 -3 -10 0 -7 5 3 5 1 19 -5 30
-9 16 -21 20 -65 20 l-55 0 0 -257z"/>
<path d="M2942 1008 c-11 -29 -37 -102 -57 -163 -21 -60 -53 -152 -71 -203
-19 -51 -34 -94 -34 -95 0 -1 22 0 50 1 l50 4 16 53 c20 61 27 65 124 65 74 0
84 -5 94 -40 22 -78 25 -80 82 -80 l54 0 -15 38 c-9 20 -34 89 -55 152 -22 63
-55 159 -75 214 -19 54 -35 100 -35 102 0 2 -24 4 -54 4 l-55 0 -19 -52z"/>
</g>
</svg>
