<?xml version="1.0" standalone="no"?>
<!DOCTYPE svg PUBLIC "-//W3C//DTD SVG 20010904//EN"
 "http://www.w3.org/TR/2001/REC-SVG-20010904/DTD/svg10.dtd">
<svg version="1.0" xmlns="http://www.w3.org/2000/svg"
 width="286.000000pt" height="328.000000pt" viewBox="0 0 286.000000 328.000000"
 preserveAspectRatio="xMidYMid meet">
<metadata>
Created by potrace 1.16, written by Peter Selinger 2001-2019
</metadata>
<g transform="translate(0.000000,328.000000) scale(0.100000,-0.100000)"
fill="#000000" stroke="none">
<path d="M1387 3123 c-4 -3 -7 -75 -7 -159 0 -141 2 -154 19 -164 25 -13 27
-13 45 6 13 13 16 42 16 158 0 97 -4 146 -12 154 -13 13 -50 16 -61 5z"/>
<path d="M2194 2668 c-57 -56 -104 -109 -104 -118 0 -19 30 -50 49 -50 7 0 57
44 112 99 74 74 99 105 99 124 0 23 -23 47 -46 47 -4 0 -53 -46 -110 -102z"/>
<path d="M496 2744 c-9 -8 -16 -23 -16 -33 0 -18 202 -221 220 -221 14 0 50
37 50 52 0 18 -205 218 -223 218 -8 0 -23 -7 -31 -16z"/>
<path d="M1164 2690 c-16 -5 -43 -23 -60 -40 -22 -23 -38 -30 -69 -30 -42 0
-117 -30 -148 -58 -24 -21 -49 -68 -57 -107 -5 -24 -14 -33 -45 -43 -101 -33
-158 -111 -153 -210 2 -56 1 -59 -39 -99 -22 -22 -46 -57 -53 -78 -16 -49 -8
-123 18 -174 13 -24 17 -43 11 -46 -18 -12 -39 -77 -39 -122 0 -61 23 -112 71
-154 40 -35 42 -39 44 -101 3 -91 41 -144 128 -179 34 -14 43 -23 59 -67 21
-55 66 -108 105 -123 13 -5 54 -9 91 -9 57 0 69 -3 93 -26 74 -71 197 -37 231
65 15 45 21 1253 7 1405 -9 105 -25 145 -69 177 -31 23 -86 31 -126 19z m-194
-392 c0 -134 4 -249 9 -257 16 -25 1 -52 -28 -49 -23 3 -26 7 -22 33 2 17 5
139 8 273 3 204 6 242 18 242 13 0 15 -36 15 -242z m144 64 c3 -10 42 -56 87
-102 107 -113 112 -121 102 -162 -11 -43 -11 -228 1 -250 16 -35 -14 -18 -94
53 l-80 72 -1 106 c-1 58 -1 123 0 144 1 35 -11 49 -24 27 -4 -6 -7 -67 -8
-137 -2 -137 3 -160 50 -196 46 -36 147 -130 157 -145 4 -8 4 -18 0 -22 -10
-9 -226 173 -236 199 -5 14 -13 296 -9 339 2 18 32 15 47 -5 13 -17 13 -17 14
0 0 11 -13 23 -32 32 -32 13 -33 12 -46 -18 -10 -24 -13 -75 -10 -200 l3 -168
40 -35 c252 -221 242 -211 228 -225 -9 -9 -39 12 -130 92 -65 57 -130 116
-145 131 l-28 28 0 162 c0 90 -3 187 -7 217 l-6 54 31 -5 c24 -3 32 0 35 14 7
24 54 24 61 0z m-274 -293 c3 -156 9 -293 14 -305 9 -25 -14 -47 -39 -38 -14
6 -16 14 -11 43 3 20 6 161 6 314 0 219 3 278 13 275 9 -4 13 -74 17 -289z
m78 153 c2 -13 -1 -29 -8 -37 -7 -8 -10 -65 -9 -161 l2 -149 31 -30 c29 -28
213 -189 281 -245 75 -63 97 -90 89 -108 -5 -9 -9 -71 -9 -137 -1 -66 -4 -126
-8 -132 -4 -6 -3 -15 3 -18 10 -6 8 -36 -5 -110 -2 -11 -4 -23 -4 -27 -1 -5
-5 -8 -11 -8 -5 0 -10 15 -10 34 0 46 -9 66 -26 59 -9 -3 -14 -21 -14 -55 0
-69 -24 -60 -28 11 -4 61 -25 66 -30 8 -4 -48 -18 -47 -31 1 -17 60 -14 92 8
92 11 0 23 -5 26 -10 5 -8 11 -7 20 0 8 7 23 9 34 5 28 -9 45 3 31 20 -8 10
-8 24 -1 52 12 41 13 193 3 231 -4 13 -11 24 -17 25 -14 3 -18 -108 -5 -133
15 -27 4 -60 -20 -60 -25 0 -41 29 -29 52 14 27 7 190 -8 196 -16 5 -18 -229
-3 -258 13 -24 4 -47 -21 -53 -27 -7 -42 24 -29 58 15 38 13 288 -2 303 -7 7
-14 12 -18 12 -3 0 -4 -114 -4 -252 2 -240 -4 -304 -27 -281 -5 5 -10 136 -11
293 -2 227 -6 284 -16 288 -11 3 -12 0 -3 -16 14 -27 14 -28 -5 -47 -15 -15
-15 -17 2 -30 17 -12 17 -17 6 -47 -8 -23 -12 -103 -12 -247 0 -166 -3 -212
-12 -209 -10 4 -14 53 -16 192 -2 165 -4 187 -17 176 -12 -10 -15 -45 -15
-181 0 -144 -2 -169 -15 -169 -13 0 -15 23 -15 150 0 83 -4 150 -9 150 -20 0
-27 -31 -26 -127 0 -57 -4 -103 -8 -103 -11 0 -15 16 -22 103 -6 66 -9 76 -21
66 -8 -6 -14 -24 -14 -40 0 -19 -5 -29 -15 -29 -8 0 -15 5 -15 11 0 6 -8 8
-19 4 -33 -10 -32 22 2 48 18 14 41 33 52 43 11 11 50 45 87 77 64 55 66 59
61 93 -4 24 -2 39 7 44 11 7 10 11 -3 24 -12 13 -13 23 -6 51 11 37 4 75 -12
75 -5 0 -9 -47 -9 -105 0 -119 9 -102 -110 -205 -35 -30 -75 -65 -88 -77 -14
-13 -31 -23 -38 -23 -31 0 -10 30 65 93 146 124 139 112 139 238 0 92 -3 111
-19 125 -17 15 -18 12 -18 -77 0 -52 0 -108 0 -126 -1 -27 -14 -42 -92 -110
-49 -43 -94 -79 -100 -81 -23 -9 -6 38 24 61 17 14 56 47 85 74 l53 48 -1 289
c0 158 -3 299 -6 312 -9 35 2 56 28 52 15 -2 24 -11 26 -26z m-207 -134 c3
-66 -1 -542 -5 -545 -3 -3 -9 -2 -15 2 -12 7 -16 537 -4 548 10 11 23 8 24 -5z
m276 -191 c6 -12 78 -81 161 -152 132 -114 172 -158 157 -173 -4 -4 -71 45
-101 73 -147 138 -240 215 -260 215 -12 0 -25 45 -16 55 14 14 50 3 59 -18z
m-195 -31 c6 -11 6 -22 -2 -30 -7 -9 -10 -53 -7 -122 2 -70 6 -101 11 -87 10
27 34 37 52 22 21 -17 17 -36 -12 -56 -14 -10 -41 -30 -59 -45 -18 -16 -35
-28 -38 -28 -12 0 -16 34 -5 41 10 6 13 48 14 161 0 84 2 156 2 160 3 12 34 1
44 -16z"/>
<path d="M1576 2690 c-35 -11 -63 -36 -85 -75 -14 -27 -16 -102 -16 -781 l0
-751 28 -36 c37 -48 62 -61 120 -60 38 1 56 7 86 31 32 26 44 29 101 29 99 -1
169 47 194 132 10 37 19 46 66 69 29 15 67 44 84 65 26 33 31 48 34 108 4 65
7 71 37 94 17 14 44 47 58 74 34 62 35 121 3 184 l-23 47 23 47 c33 65 32 124
-5 189 -16 28 -41 58 -55 68 -23 15 -25 21 -20 56 15 93 -49 196 -141 228 -46
16 -50 21 -65 67 -28 90 -106 145 -209 145 -26 0 -41 5 -42 13 -1 41 -110 77
-173 57z"/>
<path d="M2402 1858 c-7 -7 -12 -19 -12 -28 0 -35 21 -40 172 -40 138 0 148 1
158 20 6 12 8 30 5 40 -6 19 -16 20 -159 20 -105 0 -156 -4 -164 -12z"/>
<path d="M127 1854 c-4 -4 -7 -20 -7 -35 0 -38 13 -40 185 -37 l140 3 0 35 0
35 -156 3 c-85 1 -158 -1 -162 -4z"/>
<path d="M2116 1144 c-9 -8 -16 -23 -16 -33 0 -22 201 -221 223 -221 9 0 24
11 33 25 20 30 24 24 -105 152 -51 51 -100 93 -107 93 -7 0 -20 -7 -28 -16z"/>
<path d="M592 1047 c-56 -56 -102 -110 -102 -118 0 -23 25 -41 49 -37 31 5
211 186 211 212 0 26 -18 46 -40 46 -8 0 -61 -46 -118 -103z"/>
<path d="M1110 898 c-29 -11 -40 -25 -40 -55 0 -52 4 -53 375 -53 378 0 375
-1 375 61 0 54 -26 57 -375 57 -170 0 -321 -5 -335 -10z"/>
<path d="M1148 729 c-13 -7 -18 -23 -18 -57 0 -48 0 -48 60 -86 34 -22 65 -48
71 -58 14 -26 -7 -50 -40 -46 -20 2 -27 9 -29 31 -3 26 -11 32 -42 27 -22 -3
-27 -15 -22 -55 l4 -35 99 0 99 0 0 54 0 53 -70 47 c-48 32 -70 54 -70 67 0
17 6 20 38 17 23 -2 37 -8 37 -17 0 -19 29 -36 49 -28 22 9 22 82 0 91 -25 10
-147 6 -166 -5z"/>
<path d="M1403 734 c-10 -4 -13 -43 -13 -145 l0 -139 36 0 35 0 -3 143 c-3
134 -4 142 -23 144 -11 1 -26 -1 -32 -3z"/>
<path d="M1522 728 c-6 -8 -10 -62 -9 -143 l2 -130 33 -3 32 -3 0 60 0 61 40
0 c37 0 40 -2 41 -27 2 -30 5 -60 7 -80 1 -7 16 -13 32 -13 l30 0 0 140 c0
121 -2 142 -16 147 -28 10 -49 -11 -46 -45 6 -56 -5 -72 -48 -72 l-39 0 -3 58
c-3 49 -6 57 -24 60 -11 2 -26 -3 -32 -10z"/>
<path d="M1186 361 c-25 -27 -17 -72 14 -88 18 -9 90 -13 253 -13 214 0 228 1
247 20 25 25 26 62 2 83 -16 15 -49 17 -259 17 -223 0 -241 -1 -257 -19z"/>
<path d="M1285 219 c-19 -30 91 -98 159 -99 66 0 180 70 161 99 -9 15 -311 15
-320 0z"/>
</g>
</svg>
