<?xml version="1.0" standalone="no"?>
<!DOCTYPE svg PUBLIC "-//W3C//DTD SVG 20010904//EN"
 "http://www.w3.org/TR/2001/REC-SVG-20010904/DTD/svg10.dtd">
<svg version="1.0" xmlns="http://www.w3.org/2000/svg"
 width="951.000000pt" height="219.000000pt" viewBox="0 0 951.000000 219.000000"
 preserveAspectRatio="xMidYMid meet">
<metadata>
Created by potrace 1.16, written by Peter Selinger 2001-2019
</metadata>
<g transform="translate(0.000000,219.000000) scale(0.100000,-0.100000)"
fill="#000000" stroke="none">
<path d="M215 1856 c-42 -19 -84 -60 -101 -101 -28 -68 -19 -107 62 -285 42
-91 126 -273 186 -405 241 -525 253 -546 340 -589 98 -49 212 -31 287 44 50
51 65 79 199 370 49 107 133 289 186 405 53 115 102 213 109 217 21 13 53 9
70 -10 14 -15 16 -72 19 -462 3 -433 4 -446 24 -485 38 -70 97 -105 178 -105
82 0 142 39 177 115 17 37 19 71 19 400 0 210 5 379 11 405 22 94 96 149 200
150 31 0 72 -7 92 -15 49 -20 94 -79 107 -137 6 -29 10 -197 10 -410 0 -348 1
-363 21 -406 29 -60 84 -95 159 -100 106 -8 185 53 209 158 6 26 11 196 11
405 0 332 2 363 19 402 49 106 226 140 317 61 70 -62 68 -49 74 -493 5 -437 4
-428 67 -487 104 -99 283 -43 323 101 6 21 10 204 10 451 0 452 -3 483 -57
582 -34 62 -135 157 -197 186 -110 52 -247 66 -361 37 -82 -21 -192 -76 -247
-124 l-45 -40 -47 48 c-91 93 -219 136 -376 129 -128 -7 -216 -43 -359 -149
l-30 -22 -52 47 c-102 92 -214 131 -350 124 -168 -10 -294 -98 -376 -264 -22
-43 -95 -211 -163 -372 -68 -160 -124 -291 -126 -290 -2 3 -188 441 -287 678
-33 80 -71 160 -85 179 -46 62 -154 89 -227 57z"/>
<path d="M7153 1842 c-12 -2 -34 -17 -48 -33 l-25 -31 0 -618 c0 -442 3 -626
11 -644 15 -33 71 -59 108 -51 16 3 39 17 52 31 24 26 24 26 30 352 5 262 9
339 23 386 61 215 195 345 407 396 100 23 129 48 129 111 0 31 -7 47 -29 70
-25 24 -38 29 -79 29 -147 0 -326 -112 -421 -264 l-31 -50 0 126 c0 117 -2
129 -22 153 -25 27 -69 43 -105 37z"/>
<path d="M8369 1838 c-132 -16 -247 -77 -348 -183 -116 -122 -176 -260 -189
-433 -18 -248 43 -428 197 -583 198 -198 504 -246 766 -119 95 46 202 132 212
169 16 62 -18 111 -78 111 -29 0 -48 -9 -85 -41 -66 -55 -167 -105 -242 -119
-85 -17 -213 -8 -285 20 -146 56 -260 208 -284 378 l-6 42 497 0 497 0 26 26
c25 25 26 28 20 122 -12 189 -69 323 -187 442 -82 83 -159 129 -255 153 -73
19 -180 25 -256 15z m264 -203 c104 -51 186 -164 222 -303 8 -31 15 -68 15
-82 l0 -25 -420 0 c-478 0 -433 -10 -406 90 43 162 141 283 274 336 38 16 67
19 152 16 92 -3 112 -6 163 -32z"/>
<path d="M9209 1841 c-75 -24 -119 -87 -119 -169 0 -85 62 -151 148 -160 171
-16 251 208 109 305 -37 25 -100 36 -138 24z m116 -51 c41 -26 68 -88 59 -136
-9 -48 -60 -99 -107 -108 -49 -9 -103 16 -134 63 -27 40 -29 80 -6 128 32 69
122 94 188 53z"/>
<path d="M9190 1679 c0 -71 2 -80 18 -77 9 2 18 13 20 26 4 29 26 28 46 -3 28
-43 60 -29 36 15 -7 13 -7 21 0 25 14 9 13 68 -2 83 -7 7 -36 12 -65 12 l-53
0 0 -81z"/>
<path d="M3717 1820 c-54 -43 -56 -38 178 -691 243 -678 237 -664 325 -664 40
0 54 5 74 25 18 18 72 161 200 525 96 275 177 493 180 485 3 -8 80 -230 171
-493 90 -262 172 -488 180 -501 43 -65 153 -58 190 13 14 29 405 1105 431
1188 24 77 -17 133 -99 133 -63 0 -71 -18 -252 -540 -92 -267 -171 -491 -175
-498 -4 -8 -79 198 -169 460 -90 260 -170 490 -178 511 -18 44 -56 67 -110 67
-79 -1 -60 41 -348 -793 -49 -141 -92 -251 -96 -245 -4 7 -82 231 -173 498
-142 413 -171 489 -197 513 -37 34 -94 37 -132 7z"/>
<path d="M6025 1820 c-90 -20 -183 -58 -203 -83 -20 -24 -17 -85 5 -109 36
-40 58 -41 156 -6 89 32 97 33 247 33 150 0 157 -1 217 -29 73 -33 135 -95
166 -164 22 -50 37 -202 20 -202 -5 0 -51 10 -103 22 -129 30 -420 32 -520 4
-254 -70 -371 -225 -349 -462 9 -91 47 -169 114 -233 207 -196 595 -184 808
24 l55 54 3 -79 c5 -90 20 -116 76 -126 53 -10 99 16 113 63 9 28 11 163 8
468 -4 361 -7 439 -21 488 -54 187 -182 302 -379 342 -106 21 -309 19 -413 -5z
m510 -690 c49 -11 93 -24 98 -29 5 -5 9 -53 8 -107 -2 -119 -25 -178 -96 -249
-91 -92 -269 -148 -408 -131 -88 11 -192 69 -233 129 -67 98 -53 238 33 319
33 32 124 75 185 88 69 15 311 3 413 -20z"/>
</g>
</svg>
